<svg width="20" height="20" viewBox="0 0 20 20" fill="none" xmlns="http://www.w3.org/2000/svg">
<path d="M5.83337 6.66667V13.3333C5.83337 14.4384 6.27236 15.4982 7.05376 16.2796C7.83516 17.061 8.89497 17.5 10 17.5C11.1051 17.5 12.1649 17.061 12.9463 16.2796C13.7277 15.4982 14.1667 14.4384 14.1667 13.3333V5.41667C14.1667 4.64312 13.8594 3.90125 13.3124 3.35427C12.7655 2.80729 12.0236 2.5 11.25 2.5C10.4765 2.5 9.73463 2.80729 9.18765 3.35427C8.64066 3.90125 8.33337 4.64312 8.33337 5.41667V12.5C8.33337 12.942 8.50897 13.366 8.82153 13.6785C9.13409 13.9911 9.55801 14.1667 10 14.1667C10.4421 14.1667 10.866 13.9911 11.1786 13.6785C11.4911 13.366 11.6667 12.942 11.6667 12.5V6.66667" stroke="#7A7A7A" stroke-width="2" stroke-linecap="round" stroke-linejoin="round"/>
</svg>
