<?xml version="1.0" encoding="utf-8" ?><svg xmlns="http://www.w3.org/2000/svg" xmlns:xlink="http://www.w3.org/1999/xlink" width="320" height="320" viewBox="0 0 320 320"><path d="M149.733 78.1809C150.375 76.885 149.956 75.4717 151.03 73.8141C151.352 73.3176 151.835 72.8717 152.443 72.7862C153.334 72.6608 154.447 73.1782 155.136 73.7298C156.326 74.6826 156.263 75.9812 156.368 77.3769C156.681 76.5065 156.985 75.6192 157.355 74.7718C157.693 74.0006 158.175 73.1242 159.036 72.8627C159.838 72.619 160.65 72.9932 161.36 73.3425C162.328 73.8188 162.705 74.2591 163.057 75.283C163.058 76.0129 162.933 77.0005 163.152 77.6902C163.173 78.3935 163.043 79.6085 163.482 80.1674L163.694 80.2224L163.756 81.6494C162.988 82.7286 163.076 84.3184 163.283 85.5776C163.317 85.788 163.372 85.9774 163.436 86.1804C163.328 86.5204 163.241 86.8292 163.194 87.1843C163.122 87.7365 163.022 87.8799 163.361 88.3214L164.363 88.3569C165.018 87.8556 164.567 86.8514 164.82 86.0708C164.847 85.988 164.877 85.9066 164.906 85.8245C164.947 86.9287 164.871 88.1348 165.441 89.1153C165.995 89.5183 166.249 89.6732 166.98 89.5861C167.484 89.526 168.061 89.3306 168.528 89.1295C169.117 89.3229 169.592 89.4521 170.213 89.4617C173.057 89.3976 176.13 90.2006 178.871 90.9078C191.425 94.0999 202.949 100.464 212.337 109.39C220.559 117.222 226.793 126.904 230.519 137.631C231.727 141.074 232.557 144.6 233.184 148.191C233.275 148.717 233.356 149.834 233.615 150.266C233.981 150.874 234.736 150.775 235.358 150.76C235.76 150.751 236.16 150.722 236.561 150.758C237.067 150.866 237.547 150.8 238.056 150.754C239.087 150.704 240.118 150.681 241.15 150.683L242.234 150.567C242.278 150.58 242.321 150.594 242.365 150.606C244.376 151.154 248.749 149.852 249.985 151.931C250.709 153.15 250.205 154.612 249.839 155.857L247.476 156.455C246.337 156.388 244.992 156.166 243.931 156.642L244.023 156.921C245.083 157.256 246.2 157.096 247.291 157.025C248.448 157.313 249.375 157.549 250.028 158.654C250.426 159.327 250.555 160.134 250.33 160.889C250.109 161.631 249.614 162.47 248.908 162.841C248.476 163.067 247.966 163.201 247.496 163.327C246.211 163.26 244.802 163.066 243.543 163.374C243.418 163.564 243.297 163.712 243.24 163.935C242.789 163.983 242.296 163.952 241.84 163.955C241.533 163.653 241.259 163.463 240.836 163.351C239.762 163.066 238.227 163.141 237.266 163.702L236.625 163.61C236.581 163.647 236.542 163.69 236.494 163.72C235.987 164.029 234.608 163.974 233.95 164.167C233.96 164.458 233.973 164.695 234.066 164.972C233.603 165.48 233.199 166.005 233.225 166.733C233.244 167.252 233.436 167.609 233.84 167.92C235.694 169.346 245.185 169.082 247.514 168.646C248.133 168.53 248.789 168.346 249.144 167.783C249.277 167.571 249.38 167.344 249.478 167.114C249.833 166.651 249.882 166.526 250.45 166.326C250.254 167.391 250.106 168.474 249.184 169.18C247.644 170.362 244.724 169.914 242.889 169.843L241.706 169.925C240.434 169.931 238.964 169.792 237.735 170.118C237.354 169.829 237.193 169.878 236.725 169.861C235.655 169.86 234.659 169.835 233.606 169.629C231.707 187.151 221.171 204.21 207.588 215.144C198.698 222.3 188.951 226.735 177.983 229.64C176.606 230.004 175.216 230.386 173.807 230.607C172.882 230.753 171.326 230.694 170.497 231.008C170.356 231.061 170.045 231.317 169.966 231.449L169.615 231.355C169.429 232.146 169.321 233.139 168.828 233.795C168.743 232.889 168.76 231.744 168.02 231.104C167.584 230.727 167.345 230.72 166.795 230.639C166.03 230.911 165.62 231.255 165.257 231.992C164.69 233.14 164.844 234.83 165.29 236.009C165.394 236.283 165.518 236.549 165.647 236.813C165.517 237.26 165.398 237.667 165.167 238.074C164.962 238.436 165.014 238.251 165.005 238.658C164.949 240.53 164.356 244.177 165.53 245.717C165.834 245.893 166.133 246.089 166.459 246.22L166.681 246.785C167.085 246.893 167.056 246.903 167.273 247.266L166.988 247.626C166.349 247.374 165.696 247.124 165.085 246.811C164.339 246.429 164.081 245.884 163.827 245.114C163.723 243.702 163.812 242.398 163.517 240.99L163.456 240.988L163.554 241.426L163.311 241.558C163.152 242.608 163.129 243.711 163.051 244.772C162.692 245.727 162.117 246.969 161.119 247.4C160.57 247.638 159.961 247.598 159.421 247.352C158.156 246.775 157.148 245.482 156.453 244.313C156.03 244.899 156.21 245.078 156.006 245.684C155.641 246.773 153.698 247.335 152.726 247.685L152.707 247.47C152.89 246.872 153.192 246.819 153.709 246.493C154.63 245.436 154.833 244.674 154.963 243.284C155.196 240.79 155.681 232.482 154.136 230.843C153.718 230.4 153.498 230.304 152.908 230.28C152.476 230.526 152.242 230.734 151.976 231.162C151.088 232.594 151.061 234.052 151.42 235.662C151.436 235.735 151.454 235.807 151.471 235.88C151.417 236.686 151.444 237.652 151.254 238.427L151.186 242.826L150.955 241.162L150.722 241.02L150.059 242.037L150.026 240.098L150.079 238.942C150.101 238.062 150.284 236.821 149.785 236.056C148.275 233.743 143.649 234.206 141.203 233.699L140.935 233.642L140.374 233.69L140.289 233.864C140.104 234.241 140.04 234.447 139.693 234.702C136.819 231.723 132.791 230.86 128.942 229.831C128.761 230.281 128.575 230.73 128.385 231.176C126.402 227.459 121.778 225.821 118.1 224.368C117.602 224.258 117.112 224.093 116.623 223.944C116.081 223.207 115.477 222.459 114.812 221.83C113.622 220.705 110.235 217.749 108.613 217.812C108.356 218.586 108.708 219.535 108.859 220.337C108.176 220.312 107.615 220.328 107.012 219.953L107.442 219.585C107.49 218.969 107.396 218.449 107.235 217.858C106.455 214.989 103.143 211.162 100.517 209.736C100.266 209.599 100.193 209.694 99.9311 209.77L99.7348 210.643L99.6355 212.891L99.378 211.151L98.9954 210.975C98.2974 207.387 96.9604 204.308 94.5655 201.505C94.0502 200.902 93.5466 200.34 92.7144 200.267C92.19 200.807 92.2475 201.245 92.1527 201.959L91.3315 201.543C91.5709 197.017 90.2822 194.397 88.0043 190.616C88.2265 190.323 88.5326 190.061 88.7915 189.797C90.8732 192.586 91.9663 195.136 92.7458 198.49C96.0367 200.789 98.2565 204.091 99.7459 207.759C103.419 210.121 105.882 212.739 108.365 216.299C113.806 218.608 114.164 220.63 118.11 223.07C119.777 224.101 121.831 224.536 123.605 225.374C125.34 226.194 126.637 227.726 128.367 228.552C130.105 229.382 132.314 229.425 134.171 229.971C135.993 230.507 137.501 231.779 139.288 232.403C141.013 233.005 143.173 232.695 144.984 232.915C146.628 233.115 148.136 233.84 149.805 233.982C150.18 233.621 150.218 233.283 150.312 232.795C149.481 230.209 144.01 230.121 141.578 229.633C128.55 227.021 114.907 218.468 105.71 209.05C97.4338 200.575 91.7695 190.763 88.3714 179.43C87.4844 176.472 86.5039 173.103 86.5355 169.994C86.4421 169.358 86.4597 168.871 86.5855 168.24C86.6153 168.096 86.6428 167.951 86.6678 167.806C86.8156 166.929 86.868 166.247 86.3266 165.504C85.3546 164.857 83.6927 164.967 82.5323 164.818L82.5851 164.558C83.2538 164.094 84.5994 164.501 85.4646 164.238L85.6163 163.884C85.476 163.552 85.5141 163.424 85.1628 163.271C84.3274 162.907 83.0527 163.186 82.2642 163.545C80.7364 163.09 79.1929 163.206 77.6442 163.489C77.2455 163.4 76.9797 163.461 76.5846 163.524C75.4449 163.314 74.4241 163.227 73.2658 163.275C72.5527 163.176 71.6158 163.105 70.974 162.774C70.2685 162.409 69.6994 161.589 69.4855 160.838C69.2782 160.111 69.3958 159.453 69.7625 158.8C70.3647 157.726 71.1106 157.423 72.2158 157.08C73.2343 157.103 74.3878 157.267 75.3254 156.803L75.2644 156.532C74.2731 156.217 73.2424 156.378 72.2235 156.458C71.9783 156.377 71.7368 156.292 71.4932 156.206C70.722 155.937 70.0695 155.654 69.683 154.88C69.1022 153.716 69.8357 152.268 70.273 151.176C72.5099 150.556 74.7011 150.506 76.99 150.84C77.4091 150.804 77.7182 150.617 78.0929 150.438C79.3435 150.661 80.6966 150.64 81.9678 150.694C82.2945 148.019 82.4356 145.632 81.4065 143.09L82.2908 142.727C82.576 142.617 82.781 142.611 82.9533 142.349C85.0236 139.194 85.789 134.855 85.0276 131.192C85.8219 131.442 86.0211 131.753 86.4 132.493C86.5759 132.837 86.7167 133.238 86.8085 133.612C86.2864 137.635 85.1562 140.65 83.2455 144.207C83.5142 146.527 83.5567 148.403 82.9528 150.676C83.7453 150.673 84.5376 150.655 85.3293 150.62C85.6034 150.607 86.1126 150.601 86.3006 150.34C86.3074 150.33 88.4924 140.351 88.9262 139.004C92.0677 129.391 97.2095 120.553 104.013 113.071C113.459 102.657 125.681 95.1552 139.242 91.4451C142.742 90.4536 146.48 89.5447 150.12 89.3463C150.03 88.1168 150.078 86.8631 150.082 85.6297L150.057 84.3147C150.052 83.2777 150.215 82.5226 149.541 81.707C149.629 81.0184 149.635 80.9947 150.145 80.5253C150.104 79.7043 150.13 78.9213 149.733 78.1809ZM138.22 187.132C138.341 186.177 138.407 185.177 138.752 184.272L139.459 184.282L140.3 184.333L140.919 183.511C141.356 184.659 141.778 185.813 142.184 186.972C142.406 187.829 142.538 188.76 143.146 189.431C143.526 188.883 143.306 187.976 143.188 187.325C143.157 187.147 143.124 186.97 143.089 186.792C141.158 176.875 138.312 167.158 134.587 157.765C132.888 154.313 131.616 150.63 129.977 147.142C128.734 144.497 127.055 141.99 126.035 139.26L125.054 136.624C133.827 130.449 148.572 123.891 159.021 122.046C161.926 120.741 169.228 121 172.128 122.104C174.297 122.929 175.931 124.414 176.864 126.547C177.527 128.061 177.543 129.617 177.623 131.241C183.033 127.013 191.049 124.309 197.714 123.014C188.131 113.406 173.685 108.166 160.243 108.144C145.239 108.067 130.84 114.059 120.32 124.758C120.116 124.962 119.912 125.168 119.709 125.374C119.391 125.648 119.044 125.892 118.818 126.249L118.491 126.532C118.165 127.002 117.842 127.323 117.401 127.687L117.397 127.986C115.451 130.825 113.409 133.493 111.754 136.532C106.403 146.355 104.63 158.393 106.667 169.377C109.306 183.041 117.302 195.081 128.873 202.813C133.883 206.214 139.419 208.768 145.259 210.372C145.311 210.401 145.357 210.447 145.416 210.461C146.054 210.617 146.598 210.136 147.126 209.828C147.828 210.204 148.526 210.622 149.271 210.907L149.876 211.174C160.191 214.097 173.606 211.567 183.152 207.093C196.247 201.098 206.385 190.094 211.29 176.553C203.155 180.173 195.757 185.408 188.299 190.223C184.218 192.856 179.978 195.714 175.451 197.508C172.787 198.564 169.805 199.272 166.937 198.764C164.936 198.409 163.228 197.463 162.087 195.751C159.429 191.758 160.357 186.407 161.211 182C155.131 184.364 149.458 188.101 143.997 191.631C143.761 191.942 143.729 192.145 143.646 192.508C143.597 192.726 143.613 192.65 143.454 192.876C142.803 192.266 141.971 191.81 141.224 191.325C141.191 191.309 141.161 191.283 141.125 191.278C140.535 191.195 140.021 191.162 139.43 191.012L138.22 187.132ZM146.814 147.78C149.536 147.205 151.957 145.931 153.504 143.535C154.723 141.647 155.056 139.29 154.583 137.107C154.061 134.706 152.468 132.791 150.407 131.511C147.775 129.877 145.182 129.76 142.182 130.057C139.471 130.863 136.934 132.399 135.525 134.933C134.436 136.925 134.2 139.273 134.871 141.441C135.595 143.793 137.472 145.648 139.624 146.754C141.951 147.951 144.261 148.048 146.814 147.78ZM209.789 174.498C209.148 173.286 208.555 171.893 207.672 170.842C207.42 170.784 207.192 170.709 206.932 170.723C195.957 175.627 185.977 182.275 175.367 187.872C172.088 189.601 166.297 191.379 163.747 193.105C163.736 193.322 163.663 193.474 163.816 193.644C164.453 194.351 165.527 194.685 166.404 195.004C169.086 195.204 171.453 194.938 173.978 193.966C178.525 192.217 182.72 189.006 186.87 186.473C194.095 182.061 201.913 177.617 209.789 174.498ZM174.045 150.315C174.029 148.938 173.997 147.562 173.949 146.186C170.619 145.371 166.997 145.147 163.602 145.65C153.078 147.842 144.702 150.856 135.847 157.272C135.901 157.578 135.96 157.885 136.051 158.182C136.253 158.847 136.615 159.639 137.232 159.984C138.846 159.699 142.033 157.259 143.677 156.397C152.177 151.94 164.471 147.35 174.045 150.315ZM140.375 169.496C142.37 167.489 145.063 166.029 147.591 164.795C155.34 160.988 165.614 157.2 174.224 160.147L174.398 160.208C174.275 158.75 174.2 157.272 173.882 155.841C170.384 155.132 167.223 154.754 163.643 155.078C156.503 156.249 150.359 158.789 144.13 162.427C142.651 163.29 140.809 164.215 139.762 165.606C139.448 166.023 139.466 166.475 139.544 166.975C139.674 167.811 140.082 168.701 140.375 169.496ZM141.952 173.966L142.784 177.939C144.633 176.627 146.532 175.387 148.477 174.22C156.58 169.998 166.331 165.398 175.593 168.276C175.34 166.831 175.299 165.423 173.988 164.511C172.318 163.35 169.164 163.474 167.186 163.606C158.133 164.23 149.155 168.608 141.952 173.966ZM144.381 183.001C144.469 184.089 144.429 185.44 145.028 186.377C145.515 186.573 145.607 186.644 146.095 186.427C147.036 186.01 147.898 185.127 148.754 184.542C155.974 179.827 166.539 173.4 175.603 175.291C176.213 175.421 176.819 175.564 177.422 175.721C176.998 174.368 176.543 173.016 176.17 171.648C174.367 171.312 172.621 171.026 170.776 171.097C161.414 172.192 151.765 177.262 144.381 183.001ZM178.575 169.331C185.359 164.266 193.818 160.1 202.269 158.911C201.845 157.567 201.527 155.503 200.651 154.411L200.039 154.284C191.454 156.407 184.214 160.083 176.933 165.014C177.041 166.396 177.018 167.973 177.566 169.258L177.984 169.565L178.575 169.331ZM180.874 178.343C188.594 173.556 196.731 168.913 205.651 166.802C205.182 165.761 204.544 163.654 203.565 163.124C197.996 164.561 182.551 170.213 179.31 174.672C179.062 175.521 179.407 177.338 179.896 178.096C180.02 178.289 180.082 178.313 180.248 178.427L180.874 178.343ZM145.822 223.661C146.063 224.982 146.437 226.013 147.599 226.832C149.287 228.022 152.098 228.523 154.118 228.162C155.676 227.884 156.989 227.06 157.889 225.752C159.053 224.061 159.444 221.635 159.023 219.642C158.688 218.059 157.79 216.744 156.42 215.879C154.444 214.631 151.841 214.444 149.579 214.806C148.427 215.227 147.118 215.625 146.557 216.832C146.068 217.882 146.051 219.451 146.51 220.507C146.982 221.591 147.946 222.203 149.018 222.586C150.301 223.044 151.789 223.27 153.15 223.175C153.555 223.146 156.16 222.539 156.331 222.631C156.461 222.699 156.505 222.866 156.592 222.984C156.448 224.087 155.893 225.182 155.015 225.882C154.13 226.587 152.922 226.874 151.802 226.747C149.203 226.454 148.244 223.297 145.822 223.661ZM175.545 154.985C175.541 156.274 175.422 157.665 175.884 158.886L176.362 159.361L176.808 159.355C182.186 154.662 192.556 150.259 199.625 149.365C199.316 148.145 199.074 145.441 198.21 144.609L198.058 144.562C190.798 146.767 181.289 149.905 175.545 154.985ZM130.249 151.798L129.911 153.265C129.047 152.431 128.238 151.938 127.154 151.428C126.652 151.789 126.681 151.762 126.067 151.665C125.076 149.447 124.404 147 123.588 144.705C123.849 144.003 123.922 143.966 124.552 143.55C126.272 144.222 127.594 144.536 128.388 146.4C129.114 148.107 129.171 150.269 130.249 151.798ZM175.985 145.639C175.806 146.898 175.507 148.242 175.724 149.507L176.098 149.89L176.378 149.881C182.997 145.084 189.834 142.144 197.863 140.571C197.753 139.496 197.818 136.912 197.13 136.152C197.106 136.125 197.068 136.116 197.037 136.099C189.351 138.106 182.222 140.497 175.985 145.639ZM109.769 128.088C108.965 127.55 107.901 127.015 107.486 126.109C107.511 124.972 108.226 124.402 108.986 123.631C111.069 123.842 113.845 124.464 115.841 123.652L116.136 123.331L116.061 122.746C114.543 122.037 111.76 123.016 110.629 121.749C110.892 120.322 111.499 118.359 110.613 117.076C110.157 116.414 109.214 116.103 108.443 116.002C108.019 115.946 107.559 115.93 107.135 115.999C105.139 116.898 101.599 120.207 100.792 122.287C100.714 122.488 100.605 122.751 100.71 122.95C101.522 124.484 108.375 129.475 110.091 129.943C110.456 130.042 110.511 130.001 110.858 129.865C110.768 129.095 110.338 128.605 109.769 128.088ZM160.532 131.935C163.919 130.994 167.921 130.384 171.375 131.207C172.316 131.43 173.178 131.905 174.092 132.21C174.681 132.407 175.01 132.644 175.59 132.356C175.934 131.591 175.854 130.846 175.612 130.062C175.201 128.735 174.032 127.929 172.838 127.326C168.868 125.321 163.854 126.629 159.862 127.947C159.783 129.258 159.952 130.75 160.532 131.935ZM167.474 100.997L170.698 101.525C171.772 101.706 172.826 101.915 173.886 102.169C174.156 103.136 174.586 105.411 175.498 105.898C175.562 105.933 175.631 105.958 175.697 105.988L176.193 105.789C176.599 104.551 174.106 95.0586 173.316 93.6856C173.173 93.4372 172.967 93.2437 172.738 93.0782L171.508 92.8724C170.218 94.494 163.872 102.206 163.754 103.75C164.222 104.075 164.311 104.016 164.86 103.986C166.018 103.372 166.72 102.041 167.474 100.997ZM219.847 196.637C220.89 195.083 222.329 193.408 222.417 191.468L222.077 191.234C220.563 191.885 219.969 193.299 219.021 194.54C216.779 193.159 211.709 189.171 209.047 189.499C209.138 189.768 209.217 190.174 209.356 190.41C210.149 191.747 216.428 194.66 218.145 195.891C217.385 197.202 216.478 198.399 216.412 199.953L216.667 200.287C218.178 199.833 219.057 197.905 219.847 196.637ZM99.4497 129.627C95.771 130.17 93.2243 133.586 93.7538 137.267C94.2834 140.947 97.6897 143.507 101.372 142.991C105.074 142.472 107.65 139.044 107.118 135.344C106.585 131.644 103.148 129.081 99.4497 129.627ZM130.34 215.943C131.908 215.734 133.428 215.585 135.013 215.55C133.69 214.571 132.401 213.826 130.93 213.104C131.238 211.93 131.715 210.62 131.654 209.404C131.498 209.318 131.326 209.195 131.153 209.156L128.528 211.559C126.987 210.812 125.501 210.018 124.022 209.154C124.814 210.572 125.55 212.019 126.23 213.494C124.972 214.662 123.709 215.806 122.388 216.904C124.014 216.7 125.653 216.428 127.295 216.509L127.409 216.689C127.974 217.589 128.267 218.674 129.083 219.37C129.305 219.293 129.445 219.315 129.554 219.094C130.023 218.137 130.15 216.986 130.34 215.943ZM136.94 104.316C137.361 105.434 137.726 106.839 138.566 107.704L139.162 107.86C139.537 107.335 139.499 107.056 139.394 106.419C138.894 103.404 137.012 100.51 136.206 97.5339C137.517 97.0595 139.72 96.4993 140.38 95.2186L140.283 94.8335C139.928 94.7821 139.592 94.7035 139.234 94.7584C136.361 95.7643 132.011 96.7313 129.673 98.656L129.512 99.0272C130.134 99.3906 130.615 99.4584 131.332 99.2671C132.42 98.9768 133.498 98.5623 134.562 98.1953C135.303 100.255 136.096 102.296 136.94 104.316ZM164.246 215.361C162.851 217.224 162.96 219.881 161.542 221.877C161.585 222.309 161.55 222.33 161.868 222.616L162.803 222.524C163.423 223.1 163.513 223.752 163.542 224.563C163.571 225.599 163.585 226.635 163.585 227.67C164.091 228.001 164.212 228.033 164.816 228.067C165.359 227.647 165.419 227.348 165.515 226.668C165.793 224.695 165.733 217.306 164.842 215.712L164.246 215.361ZM218.354 154.26C221.484 156.221 224.926 155.349 228.343 154.567C229.258 154.358 230.242 154.244 230.919 153.547C230.975 153.489 231.034 153.432 231.091 153.375C230.48 152.809 230.289 152.564 229.411 152.632C226.78 152.836 221.807 154.716 219.583 152.967C219.015 152.521 218.737 151.901 218.659 151.192C218.555 150.239 218.712 148.51 219.338 147.755C220.758 146.043 229.07 145.919 229.094 144.362C228.686 143.98 228.348 143.699 227.762 143.709C227.484 143.713 227.204 143.764 226.932 143.812C224.158 144.282 219.256 144.49 217.542 147.088C216.702 148.362 216.777 149.848 217.118 151.265C217.372 152.32 217.828 153.315 218.354 154.26ZM199.683 104.559C198.58 104.927 197.423 105.344 196.858 106.46C196.501 107.165 196.593 107.937 196.879 108.648C197.742 110.796 201.176 113.105 201.014 115.297C200.551 115.761 200.144 115.853 199.493 115.878C198.431 115.918 196.76 115.579 195.996 114.796C194.791 113.561 195.164 109.783 193.915 109.506C193.195 110.118 192.925 111.12 192.816 112.059C192.698 113.07 193.138 113.994 193.774 114.755C194.982 116.199 196.865 117.299 198.675 117.784C199.722 117.863 201.228 117.619 202.07 116.952C202.55 116.571 202.749 116.008 202.763 115.411C202.821 112.863 197.456 107.811 198.777 106.344C199.825 106.073 201.177 106.411 202.097 106.968C202.917 107.464 203.703 108.246 204.342 108.955C204.211 109.824 203.986 110.623 204.403 111.439L204.898 111.663C205.437 111.269 205.593 111.019 205.736 110.347C205.965 109.277 205.584 108.09 204.951 107.222C203.9 105.781 201.873 104.836 200.133 104.607C199.983 104.588 199.833 104.572 199.683 104.559ZM218.279 159.123C218.095 161.231 217.007 166.637 218.076 168.265L218.674 168.424C219.525 167.661 219.529 166.576 219.591 165.487C219.662 164.018 219.695 162.547 219.692 161.076L222.438 161.209C224.318 161.323 229.042 162.025 230.585 161.328L230.977 160.91L230.894 160.474C228.928 159.182 221.157 159.546 218.279 159.123ZM175.637 226.731C179.507 226.314 182.295 222.823 181.847 218.957C181.4 215.091 177.888 212.33 174.026 212.807C170.205 213.278 167.479 216.744 167.922 220.569C168.365 224.393 171.809 227.145 175.637 226.731ZM241.291 151.992C241.228 151.974 241.165 151.955 241.101 151.939C239.083 151.422 235.784 151.284 233.957 152.412C233.369 152.775 233.129 153.127 232.968 153.786C233.325 154.523 233.614 154.777 234.433 155.056C236.301 155.695 246.693 155.717 248.417 154.899C249.069 154.59 249.196 154.342 249.485 153.728C249.403 153.035 249.2 152.701 248.758 152.169C247.356 151.379 245.431 151.774 243.892 151.934C243.003 151.89 242.177 151.894 241.291 151.992ZM197.014 130.847C197.028 129.48 197.193 127.915 196.817 126.595C196.639 126.485 196.466 126.339 196.259 126.307C188.759 128.223 182.803 130.88 176.749 135.781C176.54 137.004 176.254 138.262 176.32 139.506L176.628 139.889L176.891 139.898C183.069 135.101 189.392 132.454 197.014 130.847ZM147.423 105.039C147.299 103.112 147.074 101.242 146.761 99.3375C149.315 99.2784 152.001 99.1374 154.502 98.6029C154.628 99.8103 154.642 103.098 155.533 103.92C155.808 104.174 155.821 104.098 156.155 104.074C157.414 102.202 156.204 96.5105 155.786 94.3691C155.633 93.584 155.482 92.8391 155.044 92.1582C154.647 92.0007 154.343 91.8914 153.912 91.8504C153.753 93.4997 154.008 95.344 154.347 96.9607C151.77 97.3389 149.06 97.4296 146.528 97.9849C146.403 96.4125 146.601 94.2492 145.36 93.134L144.869 93.0805C143.783 94.6851 145.119 101.255 145.496 103.181C145.626 103.845 145.753 104.437 146.168 104.991C146.79 105.254 146.81 105.216 147.423 105.039ZM144.554 213.623C143.434 214.713 142.912 216.139 141.893 217.279C141.301 217.941 140.377 218.461 140.119 219.3C140.712 219.93 141.289 219.426 141.625 220.24C141.377 222.001 140.59 223.59 140.277 225.324C140.838 225.658 140.955 225.784 141.626 225.757C143.022 224.594 144.991 216.833 145.167 214.886C145.197 214.554 145.126 214.304 145.02 213.994L144.554 213.623ZM160.616 91.7951C160.112 94.3954 159.429 101.57 160.305 103.95C160.674 104.289 160.97 104.421 161.443 104.581C162.247 102.793 162.514 94.2313 161.801 92.3598C161.726 92.162 161.469 92.0097 161.271 91.9332C161.072 91.8563 160.822 91.8299 160.616 91.7951ZM215.896 134.582C216.634 136.315 217.301 138.243 218.304 139.833C217.476 140.778 216.402 141.768 216.092 143.014L216.18 143.617C216.733 143.745 216.932 143.692 217.425 143.372C218.295 142.806 219.114 141.716 219.823 140.939C221.483 139.342 224.697 136.914 225.458 134.777C225.29 134.175 225.219 133.997 224.639 133.707C221.935 132.358 214.929 132.987 211.635 132.601L211.358 133.12C211.571 133.618 211.591 133.73 212.091 133.95C213.162 134.421 214.736 134.45 215.896 134.582ZM229.16 173.861C229.418 173.251 229.513 173.216 229.291 172.561C227.018 170.894 220.309 170.995 217.274 170.004C216.956 170.604 216.839 170.655 216.994 171.342C218.827 172.928 226.406 173.267 229.16 173.861ZM156.898 238.731C156.967 237.446 157.136 236.091 156.83 234.83L156.343 234.385C156.245 235.602 155.847 237.667 156.615 238.644L156.898 238.731ZM158.258 81.7232C157.888 83.3918 157.556 87.3002 158.473 88.7954C158.778 89.2932 159.252 89.6184 159.843 89.6544C160.522 89.6957 161.067 89.4704 161.574 89.0474C162.206 87.6305 162.142 79.8498 162.118 77.8112C162.103 76.5613 161.848 75.4692 160.91 74.5815C160.173 74.3171 160.053 74.3171 159.289 74.4911C158.686 74.9433 158.293 75.392 158.086 76.1351C157.736 77.3946 158.155 78.9488 158.754 80.0668L158.877 80.2927C158.652 80.7639 158.421 81.2258 158.258 81.7232ZM158.228 238.401C157.982 240.102 157.534 243.742 158.48 245.223C158.82 245.757 159.339 246.102 159.978 246.157C160.579 246.21 160.874 245.894 161.291 245.539C161.746 244.519 161.878 243.471 161.943 242.364C162.07 240.211 162.609 232.606 161.108 231.198C160.619 230.739 160.29 230.76 159.67 230.764C159.126 231.03 158.765 231.301 158.449 231.83C157.691 233.101 158.118 234.796 158.429 236.139C158.412 236.823 158.509 237.78 158.228 238.401ZM192.487 219.746C193.094 218.282 193.615 216.602 194.621 215.366C196.228 215.54 197.831 215.74 199.431 215.966C198.145 214.921 196.873 213.843 195.549 212.846L197.431 208.46C196.059 209.152 194.71 209.831 193.43 210.689C192.494 209.867 191.131 208.349 189.936 208.064C190.184 209.316 190.436 210.561 190.747 211.799C189.375 212.762 187.962 213.619 186.519 214.469C188.152 214.672 189.845 214.796 191.45 215.16L192.487 219.746ZM163.92 238.569C163.905 237.694 164.163 235.219 163.596 234.583C163.486 234.46 163.426 234.438 163.295 234.364C163.199 235.562 162.815 237.718 163.594 238.653L163.92 238.569ZM156.669 86.0457C157.036 84.7981 157.132 83.3046 156.829 82.0334L156.541 81.6731C156.163 82.9244 156.001 84.3277 156.298 85.6133L156.669 86.0457ZM112.821 196.008C111.865 196.44 110.988 196.838 110.567 197.884C110.138 198.948 110.508 200.22 110.987 201.208C111.702 202.679 113.745 205.284 113.441 206.915C112.986 207.375 112.736 207.473 112.071 207.5C111.231 207.534 110.473 207.142 109.901 206.549C108.558 205.156 108.338 203.001 107.831 201.214C107.273 201.371 106.931 201.622 106.649 202.145C106.232 202.919 106.423 204.025 106.723 204.806C107.366 206.478 108.838 208 110.484 208.702C111.827 209.276 112.78 209.131 114.098 208.641C114.774 207.879 115.37 207.197 115.302 206.1C115.154 203.686 111.563 200.159 112.369 198.036C113.254 197.65 114.133 197.841 115.016 198.194C116.595 198.824 117.407 200.19 118.105 201.651C117.837 202.469 117.441 203.309 117.624 204.174L118.003 204.603C118.632 204.529 118.852 204.445 119.232 203.907C119.791 203.117 119.883 201.949 119.666 201.031C119.23 199.193 117.651 197.707 116.056 196.812C115.064 196.256 113.965 195.94 112.821 196.008ZM85.5628 155.349C85.9102 155.201 86.279 154.932 86.5228 154.642C86.9324 154.156 87.0402 153.9 87.0261 153.28C86.8646 152.967 86.6949 152.667 86.3926 152.469C84.8718 151.476 82.9981 151.604 81.3185 151.998C80.1251 151.831 78.4136 151.167 77.2912 151.537L77.0151 151.576C75.3476 151.804 72.014 151.23 70.8909 152.63C70.5754 153.023 70.5445 153.425 70.5516 153.91C71.0171 154.65 71.4104 154.927 72.2912 155.134C75.617 155.916 79.193 155.016 82.5654 155.579C82.8898 155.812 83.335 155.791 83.7272 155.835C83.8723 155.95 83.9746 156.051 84.071 156.21C84.3303 156.637 84.5626 156.861 84.9682 157.153L85.3615 157.026C85.7139 156.505 85.6013 155.946 85.5628 155.349ZM204.039 205.165C205.577 205.695 209.975 207.672 211.465 207.011C211.734 206.892 211.69 206.943 211.766 206.669C212.193 205.115 208.163 195.906 207.142 194.345C206.976 194.093 206.653 193.994 206.388 193.856C205.993 194.731 205.971 195.337 206.306 196.226C206.585 196.968 206.912 197.697 207.212 198.432C205.815 199.954 204.433 201.49 202.96 202.939C201.658 202.623 200.234 202.065 198.908 202.414L198.738 202.792C199.94 204.211 202.326 204.646 204.039 205.165ZM81.6742 157.132C81.1184 156.522 80.7057 156.457 79.8783 156.426C79.3015 156.404 78.6451 156.47 78.0789 156.572C79.2617 157.428 80.3105 157.27 81.6742 157.132ZM188.437 109.565C187.549 106.798 186.398 97.1903 184.13 95.9941C183.862 95.8528 183.583 95.7402 183.3 95.6342C181.997 97.9871 178.122 104.904 178.743 107.293L179.09 107.519C180.913 106.309 182.489 99.0978 183.849 99.0441C186.115 101.663 184.968 109.798 188.247 111.162C188.465 111.253 188.68 111.342 188.901 111.426C190.21 110.21 193.35 102.734 193.58 100.828L193.344 100.193C192.831 100.221 192.792 100.311 192.448 100.706C190.584 102.845 189.261 106.844 188.437 109.565ZM111.106 110.375C110.986 111.193 110.876 111.49 111.418 112.169C112.779 113.877 118.155 119.871 120.13 120.083C120.111 119.798 120.141 119.386 120.068 119.12C119.701 117.796 114.198 112.546 112.946 111.432C112.358 110.908 111.87 110.597 111.106 110.375ZM212.398 125.878C213.495 127.37 214.598 128.7 216.546 128.971C217.418 129.092 218.366 128.895 219.039 128.307C219.756 127.68 220.091 126.729 220.096 125.792C220.107 123.506 217.845 120.369 216.282 118.857C215.918 118.505 215.656 118.47 215.171 118.465C212.435 120.332 207.366 123.127 205.653 125.718L205.813 126.05C207.192 125.846 210.309 123.509 211.26 124.326C211.72 124.72 212.068 125.37 212.398 125.878ZM151.461 79.4668C151.283 80.2527 151.341 80.9042 151.429 81.6907C150.919 83.2442 150.844 86.8584 151.426 88.3911C151.6 88.8477 151.927 89.2776 152.38 89.4775C152.912 89.7123 153.75 89.6688 154.269 89.4104C154.656 89.218 154.75 89.0623 154.861 88.6564C155.374 86.7737 155.424 76.3707 154.47 74.9614C154.083 74.3897 153.796 74.2875 153.174 74.1279C152.697 74.2588 152.395 74.4252 152.081 74.8184C151.107 76.0349 151.219 77.7733 151.427 79.2356L151.461 79.4668ZM130.48 110.192C127.998 108.947 119.222 104.961 116.792 105.72C116.595 105.781 116.471 105.884 116.314 106.012C116.246 107.857 120.892 114.647 122.313 116.173C122.556 116.433 123.027 116.521 123.363 116.642C123.715 114.983 122.381 113.308 121.502 111.963C120.389 110.26 119.196 108.6 118.024 106.936C120.972 108.052 129.234 112.038 131.983 111.192C132.216 110.907 132.311 110.921 132.273 110.524C132.181 109.563 126.913 101.259 126.157 100.715C125.841 100.488 125.404 100.402 125.028 100.324C124.712 102.688 129.164 107.924 130.48 110.192ZM212.443 172.686C215.738 159.804 213.78 146.14 206.999 134.702C205.817 132.685 200.827 124.931 198.852 124.413C198.782 124.395 198.71 124.385 198.639 124.37C198.832 139.607 201.042 154.61 208.43 168.135C209.249 169.634 210.387 172.384 211.568 173.51C211.64 173.579 211.716 173.645 211.791 173.712L212.173 173.641C212.304 173.305 212.411 173.052 212.443 172.686ZM174.641 179.311C172.104 179.684 164.544 181.654 163.068 183.579C162.417 184.429 161.899 186.025 162.175 187.086C162.245 187.356 162.396 187.608 162.545 187.841C163.156 188.066 163.288 187.995 163.873 187.709C164.134 187.581 164.384 187.42 164.631 187.266C167.351 185.796 175.367 182.027 176.842 179.804L176.797 179.366C176.081 179.034 175.396 179.21 174.641 179.311ZM239.935 158.125C238.221 158.131 234.9 157.65 233.621 158.852C233.386 159.525 233.119 160.371 233.451 161.059C233.698 161.571 234.024 161.707 234.549 161.863C236.776 162.526 245.52 162.102 248.29 161.995C248.847 161.543 249.441 160.924 249.526 160.172C249.583 159.661 249.33 159.424 249.071 159.02C247.489 158.023 246.028 158.017 244.205 158.179C242.904 159.21 241.081 161.13 239.321 160.963L239.155 160.634C239.578 159.922 240.797 158.858 240.865 158.154C240.489 158.04 240.315 158.022 239.935 158.125ZM72.0585 158.053C71.2963 158.523 70.9507 159.019 70.4894 159.755C70.4537 160.305 70.3937 160.619 70.8299 161.052C72.5134 162.724 82.5174 162.204 85.026 161.957C85.4846 161.912 85.8057 161.855 86.2118 161.629C86.7206 160.948 86.7703 160.375 86.6513 159.546C86.6089 159.26 86.5579 158.975 86.4985 158.693C85.1998 158.069 83.7042 158.104 82.2876 158.047C81.0466 158.78 78.4067 160.984 76.9842 160.643C77.2051 159.502 78.4841 158.649 79.3495 157.948C76.9003 158.124 74.5116 158.169 72.0585 158.053ZM98.0609 172.815C98.2654 173.588 98.2568 173.845 98.9979 174.245C100.649 175.134 102.656 175.387 103.393 177.389C103.814 178.533 103.766 180.382 103.196 181.464C102.56 182.67 101.303 183.413 100.022 183.746C98.3529 184.179 96.9415 183.96 95.4599 183.073C94.6754 182.604 94.0523 181.923 93.8131 181.025C93.2936 179.073 95.7242 175.053 94.8389 174.078C93.5918 174.496 92.8578 175.661 92.1974 176.723C91.7858 178.899 91.7948 180.993 93.0769 182.904C94.0367 184.334 95.5515 185.261 97.2368 185.566C99.1768 185.916 101.347 185.449 102.951 184.297C104.2 183.399 105.057 182.122 105.296 180.593C105.574 178.814 104.969 176.573 103.907 175.126C102.975 173.858 101.535 173.085 99.9894 172.87C99.3428 172.78 98.7115 172.78 98.0609 172.815ZM94.3213 144.978C92.5342 145.565 91.1192 146.318 90.2374 148.058C89.3931 149.723 89.2787 152.089 89.8738 153.85C90.3929 155.386 91.4624 156.521 92.9228 157.208C94.6832 158.036 96.859 158.232 98.7019 157.566C100.245 157.008 101.579 155.825 102.279 154.335C103.096 152.599 102.953 150.754 102.282 148.995C101.961 148.155 101.496 147.508 100.923 146.825C100.195 146.262 99.6659 145.879 98.7507 145.669L98.3225 145.761C98.2249 146.356 98.289 146.827 98.6695 147.334C99.8951 148.967 101.207 148.907 101.117 151.569C101.071 152.928 100.445 154.307 99.4039 155.191C98.3124 156.119 96.9666 156.341 95.5813 156.192C94.2436 156.049 92.9736 155.503 92.141 154.406C91.352 153.367 90.9401 151.639 91.1896 150.355C91.6376 148.05 95.6526 146.533 94.8502 145.134L94.3213 144.978ZM174.856 135.843C170.697 134.879 165.473 134.138 161.425 136.026C161.671 137.425 161.833 138.924 162.379 140.241C166.834 139.264 170.29 139.365 174.691 140.404C174.736 138.883 174.791 137.363 174.856 135.843ZM218.263 174.79C216.669 175.285 215.583 176.108 214.814 177.61C214.082 179.042 213.582 181.499 214.13 183.047C214.487 184.052 215.535 185.415 216.522 185.818C217.081 186.046 217.673 185.928 218.196 185.652C220.259 184.56 222.308 178.561 224.215 179.03C224.726 179.155 225.009 179.375 225.239 179.864C225.706 180.858 225.263 182.518 224.815 183.461C224.434 184.261 224.027 184.689 223.229 185.056C222.588 185.351 221.968 185.586 221.572 186.2C221.684 186.555 221.657 186.666 221.991 186.843C222.574 187.152 223.382 187.014 224.02 186.972C225.793 185.73 226.706 184.087 227.067 181.95C227.281 180.685 227.099 179.41 226.293 178.375C225.736 177.659 224.916 176.906 223.972 176.839C223.133 176.78 222.383 177.274 221.808 177.836C220.258 179.348 219.069 183.183 217.03 183.82C216.353 183.565 215.986 183.224 215.685 182.534C215.251 181.538 215.753 179.905 216.179 178.965C217.39 176.289 220.11 177.095 220.423 175.492C219.795 174.888 219.11 174.833 218.263 174.79Z"/><path fill="#EF1B22" d="M125.054 136.624C133.827 130.449 148.572 123.891 159.021 122.046C159.219 124.006 159.307 126.05 159.862 127.947C159.783 129.258 159.952 130.75 160.532 131.935C160.54 133.36 160.899 134.705 161.425 136.026C161.671 137.425 161.833 138.924 162.379 140.241C162.732 142.038 163.335 143.851 163.602 145.65C153.078 147.842 144.702 150.856 135.847 157.272L134.587 157.765C132.888 154.313 131.616 150.63 129.977 147.142C128.734 144.497 127.055 141.99 126.035 139.26L125.054 136.624ZM146.814 147.78C149.536 147.205 151.957 145.931 153.504 143.535C154.723 141.647 155.056 139.29 154.583 137.107C154.061 134.706 152.468 132.791 150.407 131.511C147.775 129.877 145.182 129.76 142.182 130.057C139.471 130.863 136.934 132.399 135.525 134.933C134.436 136.925 134.2 139.273 134.871 141.441C135.595 143.793 137.472 145.648 139.624 146.754C141.951 147.951 144.261 148.048 146.814 147.78Z"/><path fill="#454189" d="M144.417 133.531C146.474 134.869 149.297 133.975 151.24 135.455C151.55 136.052 151.468 136.596 151.346 137.232C150.919 139.466 149.13 144.164 147.087 145.385C146.73 145.598 146.706 145.51 146.331 145.428C145.955 144.67 146.081 144.196 146.131 143.361C144.569 141.924 143.24 139.836 140.838 139.746C140.133 139.719 139.294 140.061 138.623 139.919C138.195 139.828 138.101 139.58 137.86 139.25C137.811 138.757 137.834 138.34 137.987 137.863C138.342 136.763 139.635 134.319 140.887 134.121C142.622 133.846 142.589 134.444 144.417 133.531Z"/><path fill="#F8C91B" d="M154.539 125.096C155.278 125.727 155.837 126.027 156.774 126.286L157.115 126.091C156.947 127.012 157.448 128.182 157.02 129.017L155.828 129.297L154.999 129.83C154.261 129.665 153.679 128.843 153.3 128.18C152.701 127.133 154.182 126.447 154.492 125.292C154.51 125.227 154.524 125.161 154.539 125.096Z"/><path fill="#F8C91B" d="M130.459 135.696C131.198 136.217 132.232 135.996 132.796 136.523C132.474 137.274 132.574 137.822 132.717 138.593C132.791 138.992 132.725 138.973 132.54 139.311C132.235 139.288 131.991 139.282 131.686 139.336C131.604 139.35 131.522 139.369 131.441 139.386C131.166 139.552 130.87 139.687 130.584 139.832C129.791 139.31 128.83 138.307 128.577 137.388C129.185 136.801 129.818 136.248 130.459 135.696Z"/><path fill="#F8C91B" d="M157.59 140.351C158.007 140.466 158.41 140.61 158.796 140.808C159.407 141.122 159.848 141.594 160.026 142.271C160.179 142.853 160.27 143.214 159.961 143.746L159.439 143.849C158.8 144.079 158.334 144.263 157.651 144.181C157.221 143.925 156.962 143.863 156.794 143.35C156.437 142.256 157.086 141.277 157.59 140.351Z"/><path fill="#F8C91B" d="M136.278 149.366C136.94 149.594 137.632 149.774 138.196 150.202C138.699 150.954 138.583 151.616 138.513 152.468L138.047 152.533C137.501 152.724 136.845 152.994 136.265 152.787C135.589 152.544 135.472 152.335 135.195 151.727C135.107 150.744 135.721 150.102 136.278 149.366Z"/><path d="M173.717 214.693C176.52 214.044 179.319 215.783 179.978 218.583C180.637 221.383 178.907 224.189 176.11 224.858C173.298 225.531 170.475 223.79 169.813 220.976C169.15 218.162 170.901 215.345 173.717 214.693Z"/><path d="M99.6214 131.32C100.737 131.402 101.856 131.524 102.868 132.033C104.023 132.615 104.951 133.664 105.322 134.908C105.66 136.082 105.532 137.341 104.963 138.421C104.102 140.08 102.856 140.787 101.13 141.313C100.064 141.215 98.6855 141.007 97.7505 140.462C96.6354 139.812 95.8244 138.785 95.4979 137.53C95.1797 136.306 95.3837 134.799 96.0699 133.735C96.9487 132.371 98.0683 131.677 99.6214 131.32Z"/><path d="M150.12 216.284C151.046 216.226 152.001 216.16 152.918 216.321C154.113 216.53 155.955 217.307 156.599 218.393C156.831 218.785 156.909 219.315 156.781 219.747C156.492 220.719 155.661 221.22 154.819 221.648C153.945 221.747 153.034 221.874 152.159 221.739C150.924 221.548 149.158 220.79 148.46 219.71C148.208 219.321 148.07 218.805 148.181 218.346C148.429 217.33 149.283 216.77 150.12 216.284Z"/><path d="M107.031 117.638C107.66 117.604 108.451 117.671 108.955 118.091C109.324 118.399 109.491 118.766 109.491 119.254C109.494 121.057 106.838 123.774 105.565 124.948C104.627 124.121 103.591 123.391 102.594 122.637C103.86 120.897 105.299 118.935 107.031 117.638Z"/><path d="M215.244 120.471C215.323 120.514 215.402 120.555 215.479 120.6C216.552 121.233 218.062 123.486 218.359 124.736C218.512 125.379 218.494 125.942 218.109 126.487C217.663 127.119 216.822 127.249 216.112 127.353C214.178 126.343 213.105 124.47 211.906 122.722C212.954 121.906 214.136 121.207 215.244 120.471Z"/><path d="M171.611 95.171C171.672 95.2215 171.736 95.2697 171.795 95.3226C172.29 95.7654 173.036 98.061 173.059 98.7785C173.079 99.4145 173.076 99.7052 172.62 100.169L171.44 99.9569C170.87 99.9227 170.187 99.9398 169.655 99.7231C169.285 99.5728 169.33 99.4005 169.192 99.0484C169.395 97.8072 170.865 96.2462 171.611 95.171Z"/><defs><linearGradient id="gradient_0" gradientUnits="userSpaceOnUse" x1="220.94421" y1="136.64685" x2="219.50829" y2="134.63689"><stop offset="0" stop-color="black" stop-opacity="0.95686275"/><stop offset="1" stop-color="black"/></linearGradient></defs><path fill="url(#gradient_0)" d="M217.819 134.503C219.822 134.579 221.827 134.731 223.829 134.853L221.278 136.903L219.416 139.09C218.814 137.597 218.112 136.092 217.819 134.503Z"/><defs><linearGradient id="gradient_1" gradientUnits="userSpaceOnUse" x1="207.38599" y1="201.47682" x2="206.93671" y2="203.68629"><stop offset="0" stop-color="black" stop-opacity="0.93333334"/><stop offset="1" stop-color="black" stop-opacity="0.98039216"/></linearGradient></defs><path fill="url(#gradient_1)" d="M207.582 200.388C207.79 200.552 207.951 200.674 208.106 200.893C208.779 201.844 209.759 203.648 209.538 204.85C208.882 205.124 208.653 204.931 207.988 204.728L204.433 203.684C205.595 202.712 206.574 201.516 207.582 200.388Z"/><defs><linearGradient id="gradient_2" gradientUnits="userSpaceOnUse" x1="142.52814" y1="180.98553" x2="131.88786" y2="173.56012"><stop offset="0" stop-color="black" stop-opacity="0.86274511"/><stop offset="1" stop-color="black"/></linearGradient></defs><path fill="url(#gradient_2)" d="M133.186 172.405C133.205 172.029 133.321 171.677 133.422 171.316C134.463 170.967 135.743 171.113 136.837 171.132C137.585 173.83 140.894 181.478 140.919 183.511L140.3 184.333L139.459 184.282L139.488 184.121L139.943 183.814C140.295 182.675 139.269 180.595 138.844 179.459C137.928 178.81 136.94 178.009 135.766 178.107C135.565 178.106 135.294 178.01 135.097 177.962C134.346 176.155 133.79 174.265 133.186 172.405Z"/><defs><linearGradient id="gradient_3" gradientUnits="userSpaceOnUse" x1="123.88597" y1="128.64632" x2="119.02316" y2="135.59045"><stop offset="0" stop-color="black" stop-opacity="0.87058824"/><stop offset="1" stop-color="black"/></linearGradient></defs><path fill="url(#gradient_3)" d="M118.818 126.249C119.044 125.892 119.391 125.648 119.709 125.374C121.8 127.487 124.043 129.891 125.742 132.327C125.097 132.965 124.326 133.594 124.279 134.569C124.248 135.214 124.697 136.097 125.054 136.624L126.035 139.26C125.986 139.255 125.937 139.25 125.888 139.244C125.806 139.234 125.725 139.221 125.643 139.211C124.604 139.085 123.969 138.84 123.055 138.334L122.629 138.03L121.887 138.207L121.166 137.694C121.094 137.261 121.044 136.741 120.889 136.331C120.623 135.627 120.388 135.527 119.752 135.222L119.282 134.606C120.452 133.947 123.171 133.53 123.817 132.383C123.776 132.19 123.727 132.007 123.652 131.823C123.034 130.307 120.233 126.898 118.818 126.249Z"/><defs><linearGradient id="gradient_4" gradientUnits="userSpaceOnUse" x1="132.87912" y1="166.35417" x2="130.43143" y2="156.88017"><stop offset="0" stop-color="black" stop-opacity="0.95686275"/><stop offset="1" stop-color="black"/></linearGradient></defs><path fill="url(#gradient_4)" d="M129.007 156.832C129.746 157.183 130.428 157.529 131.238 157.69L132.128 157.787C133.196 160.829 134.238 163.892 135.375 166.91L134.778 167.197C134.233 165.889 133.239 165.422 132.059 164.779L131.895 164.612L130.449 164.646L128.094 157.734L128.265 157.156L129.007 156.832Z"/><path d="M124.552 143.55C126.272 144.222 127.594 144.536 128.388 146.4C129.114 148.107 129.171 150.269 130.249 151.798L129.911 153.265C129.047 152.431 128.238 151.938 127.154 151.428C126.652 151.789 126.681 151.762 126.067 151.665C125.076 149.447 124.404 147 123.588 144.705C123.849 144.003 123.922 143.966 124.552 143.55Z"/><path d="M141.595 197.185L141.859 196.681L142.612 196.703L144.747 197.589L145.885 197.765C146.593 199.937 147.168 202.444 148.193 204.472C147.997 205.034 148.005 205.359 147.481 205.667C146.71 205.12 145.931 204.714 145.082 204.304L144.249 204.81C143.51 202.262 142.615 199.632 141.595 197.185Z"/><path d="M130.449 164.646L131.895 164.612L132.059 164.779L131.637 165.162C131.705 166.633 132.428 168.229 132.927 169.61C133.983 170.247 135.027 170.865 136.141 171.395C135.573 169.997 135.126 168.667 134.778 167.197L135.375 166.91C136.039 168.284 136.302 169.725 136.837 171.132C135.743 171.113 134.463 170.967 133.422 171.316C133.321 171.677 133.205 172.029 133.186 172.405C132.022 169.93 131.254 167.253 130.449 164.646Z"/><path d="M117.397 127.986L117.401 127.687C117.842 127.323 118.165 127.002 118.491 126.532C119.013 128.856 118.476 132.68 119.282 134.606L119.752 135.222C119.281 135.595 119.141 135.805 118.531 135.845C116.928 134.156 118.893 130.074 117.397 127.986Z"/><path d="M121.166 137.694L121.887 138.207L122.629 138.03L123.055 138.334L122.572 138.672C122.584 140.195 123.51 142.434 124.552 143.55C123.922 143.966 123.849 144.003 123.588 144.705C122.692 142.393 121.918 140.056 121.166 137.694Z"/><path d="M77.2912 151.537C78.4136 151.167 80.1251 151.831 81.3185 151.998C80.3034 152.79 79.0217 153.925 77.7682 154.297C77.2512 154.451 77.1093 154.266 76.6814 154.022C76.7866 153.376 77.9468 152.758 78.4247 152.207L78.2503 151.828L77.2912 151.537Z"/><path d="M139.43 191.012C140.021 191.162 140.535 191.195 141.125 191.278C141.161 191.283 141.191 191.309 141.224 191.325L140.781 191.76C140.836 193.193 141.659 195.636 142.612 196.703L141.859 196.681L141.595 197.185C140.48 195.53 140.217 192.893 139.43 191.012Z"/><path d="M144.249 204.81L145.082 204.304C145.036 205.791 146.172 208.693 147.126 209.828C146.598 210.136 146.054 210.617 145.416 210.461C145.357 210.447 145.311 210.401 145.259 210.372L145.614 210.232C146.201 209.283 144.393 206.088 144.249 204.81Z"/><path d="M126.067 151.665C126.681 151.762 126.652 151.789 127.154 151.428C126.843 152.531 127.774 155.203 128.407 156.159C128.578 156.417 128.775 156.629 129.007 156.832L128.265 157.156L128.094 157.734C127.102 156.304 126.34 153.415 126.067 151.665Z"/><path d="M151.461 79.4668C152.551 80.6811 153.698 81.7412 153.794 83.4768L153.377 83.6367C152.518 83.2221 152.001 82.4246 151.429 81.6907C151.341 80.9042 151.283 80.2527 151.461 79.4668Z"/><path d="M158.429 236.139C159.43 237.306 160.277 238.226 160.751 239.714L160.564 240.088C159.73 240.003 159.394 239.709 158.858 239.058C158.653 238.809 158.492 238.592 158.228 238.401C158.509 237.78 158.412 236.823 158.429 236.139Z"/><path d="M148.193 204.472C148.953 206.383 150.213 208.791 149.914 210.874C149.899 210.974 149.889 211.074 149.876 211.174L149.271 210.907L149.416 210.45C149.08 208.944 148.458 206.869 147.481 205.667C148.005 205.359 147.997 205.034 148.193 204.472Z"/><path d="M241.291 151.992C242.177 151.894 243.003 151.89 243.892 151.934C242.352 152.893 241.522 153.677 239.701 154.153L239.37 153.908C239.699 153.07 240.59 152.558 241.291 151.992Z"/><path d="M135.097 177.962C135.294 178.01 135.565 178.106 135.766 178.107C136.391 179.673 136.809 181.742 137.767 183.113C137.336 183.419 137.26 183.43 137.088 183.953C136.099 182.437 135.426 179.759 135.097 177.962Z"/><path d="M143.454 192.876C143.613 192.65 143.597 192.726 143.646 192.508C143.729 192.145 143.761 191.942 143.997 191.631C144.495 193.716 145.345 195.693 145.885 197.765L144.747 197.589C145.001 196.227 143.909 194.222 143.454 192.876Z"/><path d="M158.877 80.2927C159.864 81.1843 160.649 82.0533 160.893 83.4061L160.582 83.632C159.831 83.4193 159.553 83.213 159.056 82.6269C158.803 82.3288 158.546 81.9862 158.258 81.7232C158.421 81.2258 158.652 80.7639 158.877 80.2927Z"/><path d="M130.249 151.798C130.444 153.906 131.969 155.631 132.128 157.787L131.238 157.69C131.107 156.242 130.375 154.65 129.911 153.265L130.249 151.798Z"/><path d="M137.767 183.113L139.488 184.121L139.459 184.282L138.752 184.272C138.407 185.177 138.341 186.177 138.22 187.132L137.088 183.953C137.26 183.43 137.336 183.419 137.767 183.113Z"/><path d="M82.5654 155.579C83.5685 155.404 84.5465 155.371 85.5628 155.349C85.6013 155.946 85.7139 156.505 85.3615 157.026L84.9682 157.153C84.5626 156.861 84.3303 156.637 84.071 156.21C83.9746 156.051 83.8723 155.95 83.7272 155.835C83.335 155.791 82.8898 155.812 82.5654 155.579Z"/><path d="M156.343 234.385L156.83 234.83C157.136 236.091 156.967 237.446 156.898 238.731L156.615 238.644C155.847 237.667 156.245 235.602 156.343 234.385Z"/><path d="M156.541 81.6731L156.829 82.0334C157.132 83.3046 157.036 84.7981 156.669 86.0457L156.298 85.6133C156.001 84.3277 156.163 82.9244 156.541 81.6731Z"/><path d="M163.295 234.364C163.426 234.438 163.486 234.46 163.596 234.583C164.163 235.219 163.905 237.694 163.92 238.569L163.594 238.653C162.815 237.718 163.199 235.562 163.295 234.364Z"/><path d="M78.0789 156.572C78.6451 156.47 79.3015 156.404 79.8783 156.426C80.7057 156.457 81.1184 156.522 81.6742 157.132C80.3105 157.27 79.2617 157.428 78.0789 156.572Z"/><path d="M142.184 186.972L143.089 186.792C143.124 186.97 143.157 187.147 143.188 187.325C143.306 187.976 143.526 188.883 143.146 189.431C142.538 188.76 142.406 187.829 142.184 186.972Z"/><path fill="#EF1B22" d="M238.057 209.744C247.345 204.753 256.527 198.054 263.893 190.524C265.264 189.122 269.951 182.23 271.502 182.075C272.587 183.641 272.685 186.122 272.97 187.958C273.271 189.897 273.722 191.847 273.909 193.799C274.574 200.769 273.914 207.811 272.661 214.666C271.858 219.06 269.998 227.246 267.451 230.842L267.053 231.025C265.897 230.163 263.474 223.522 260.839 221.035C257.764 226.793 254.553 232.444 250.749 237.761C248.748 240.558 246.319 243.176 244.428 246.007C248.12 249.573 251.586 253.394 255.14 257.097C257.135 259.175 259.49 261.221 261.207 263.527C261.845 264.383 262.531 265.536 262.526 266.634C262.522 267.512 262.132 268.149 261.492 268.722C260.551 269.564 259.394 270.086 258.106 269.98C256.894 269.881 255.927 269.297 254.988 268.566C252.073 266.295 249.613 263.092 247.138 260.357C244.725 257.691 242.169 255.124 239.884 252.347C239.716 252.142 239.552 251.933 239.393 251.721C230.363 261.571 219.872 269.447 207.592 274.814C192.59 281.371 176.444 281.769 165.404 295.436C163.235 298.121 161.331 300.967 159.861 304.097C156.673 295.312 148.545 288.171 140.237 284.312C134.542 281.667 128.216 280.28 122.261 278.329C105.477 272.831 92.4581 264.64 80.4956 251.643C78.1056 255.086 74.8062 258.202 71.9591 261.277C69.8551 263.548 67.7813 266.148 65.4127 268.142C64.4949 268.915 63.4952 269.632 62.2942 269.86C61.1262 270.083 59.8008 269.95 58.8097 269.25C58.0765 268.732 57.4529 267.892 57.3696 266.978C57.2119 265.249 58.7473 263.326 59.8398 262.148C64.7502 256.853 71.2098 251.485 75.3976 245.766C69.1772 238.22 63.5798 229.787 59.1844 221.042C55.1319 224.975 55.4624 227.93 52.823 231.236L52.5172 231.216C51.2181 228.896 50.4282 226.165 49.6342 223.64C45.7529 211.295 44.2083 196.207 47.7954 183.586C48.0076 182.856 48.2487 182.134 48.5182 181.423C51.1696 184.819 53.8129 188.348 56.7738 191.48C61.2635 196.228 66.9681 200.467 72.4262 204.045C75.4408 206.022 78.6665 207.685 81.6506 209.684C77.8134 210.704 73.8863 211.531 70.2896 213.248C73.8976 221.222 78.283 230.41 84.7539 236.471C86.7511 233.884 89.1792 231.545 91.42 229.166C94.9024 225.434 98.4237 221.74 101.983 218.082C102.629 218.563 103.293 219.03 103.917 219.54C101.251 223.435 89.8601 235.051 86.1296 238.386L88.3759 240.16C89.7794 238.005 104.141 222.635 106.275 221.041C106.928 221.302 107.725 221.512 108.202 222.045C104.243 226.434 100.242 230.786 96.1998 235.098C94.2093 237.232 92.2353 239.691 89.9557 241.511C99.1367 249.357 110.972 254.106 122.513 257.156C126.507 258.212 131.129 259.36 135.289 259.001C142.017 258.421 147.79 253.971 151.958 248.915C152.292 248.51 152.535 248.177 152.726 247.685C153.698 247.335 155.641 246.773 156.006 245.684C156.21 245.078 156.03 244.899 156.453 244.313C157.148 245.482 158.156 246.775 159.421 247.352C159.961 247.598 160.57 247.638 161.119 247.4C162.117 246.969 162.692 245.727 163.051 244.772L163.827 245.114C164.081 245.884 164.339 246.429 165.085 246.811C165.696 247.124 166.349 247.374 166.988 247.626C167.048 247.723 167.109 247.819 167.176 247.911C171.084 253.238 176.892 258.071 183.66 258.91C191.801 259.92 207.418 254.638 214.857 250.982C220.221 248.391 225.284 245.217 229.954 241.519C227.592 239.591 225.62 237.047 223.544 234.815L212.011 222.443C212.412 221.628 212.736 221.164 213.457 220.582C214.769 222.55 216.586 224.248 218.209 225.965C222.472 230.473 228.001 235.575 231.853 240.166C232.446 239.585 233.03 239.088 233.341 238.298C233.072 237.274 217.602 221.709 215.655 219.7C216.241 219.107 217.037 218.685 217.737 218.235C224.064 223.886 229.174 230.9 235.585 236.429C239.055 231.842 242.378 227.36 245.14 222.295C246.781 219.287 248.077 216.127 249.648 213.087C245.83 211.574 242.111 210.457 238.057 209.744ZM159.902 257.859C157.176 262.843 154.819 270.892 148.641 272.677C146.395 273.326 143.869 273.084 141.567 272.876C129.421 271.777 116.504 267.227 105.884 261.243C89.7728 252.164 76.3496 236.486 67.1481 220.674C65.7621 218.293 63.752 215.612 63.0458 212.935C62.9204 212.459 62.8166 211.826 63.1142 211.402C64.4146 209.549 72.6741 209.366 72.7955 208.507C71.0382 207.871 68.9604 207.85 67.1142 207.558C60.6302 206.532 57.2376 203.198 54.5611 197.472C53.935 196.132 53.1444 193.568 52.0738 192.613L51.7419 192.637C51.5339 194.233 54.0904 199.574 54.6014 201.73C55.2123 204.307 55.5188 207.197 55.5021 209.849C55.4944 211.078 55.4198 212.357 55.1903 213.564C54.8416 215.398 52.8086 220.742 53.1728 222.116C55.4794 220.368 55.6629 215.433 58.7658 214.333C59.5442 214.457 59.8736 214.74 60.3486 215.376C61.4788 216.89 62.2308 218.731 63.2228 220.343C65.6788 224.334 68.2646 228.3 71.0124 232.097C88.2398 255.902 108.316 269.491 137.68 274.313C145.408 275.582 149.75 274.699 154.91 281.904C156.345 283.907 157.549 286.024 158.631 288.234C158.904 289.257 159.559 290.273 160.054 291.213C159.908 289.449 159.759 287.69 159.528 285.935C159.792 276.57 159.195 267.216 159.902 257.859ZM242.48 248.11C241.943 248.836 241.614 249.119 241.531 250.03C242.395 251.732 253.409 263.283 255.163 264.787C255.812 265.343 256.473 265.705 257.286 265.968C257.349 265.988 257.413 266.007 257.476 266.027C257.845 265.299 258.001 265.049 257.946 264.21C256.81 262.409 243.861 248.678 242.48 248.11ZM77.2073 248.169C74.9853 250.551 62.334 263.187 62.1075 264.8C62.3707 265.361 62.4756 265.591 63.1254 265.773C63.3758 265.843 63.6696 265.841 63.9287 265.848C66.4118 263.723 68.523 261.104 70.7266 258.696C73.4387 255.771 76.2087 252.901 79.0349 250.087C78.4475 249.25 78.1695 248.552 77.2073 248.169ZM260.526 213.878C264.433 216.211 265.003 221.089 266.754 222.162L266.983 221.903C266.871 220.197 265.977 218.47 265.477 216.839C264.489 213.62 264.052 209.037 264.578 205.707C265.071 202.592 265.989 199.597 267.026 196.626C267.275 195.912 268.355 193.625 268.311 192.958C268.301 192.815 268.221 192.686 268.176 192.549L267.92 192.372L267.757 192.644C263.819 199.315 263.375 205.01 254.564 207.287C251.51 208.076 248.373 207.831 245.312 208.762C249.25 209.408 254.333 208.934 257.352 211.912C255.843 216.304 253.292 219.957 250.894 223.888C240.473 240.972 227.465 255.006 209.256 263.924C201.392 267.775 193.366 270.324 184.761 271.895C181.822 272.432 168.577 273.438 167.205 274.397L167.116 274.898L167.463 275.339C170.923 276.161 174.844 275.455 178.327 274.972C192.042 273.071 205.529 269.329 217.403 262.014C231.765 253.167 243.443 240.816 252.707 226.793C254.254 224.422 255.734 222.008 257.145 219.553C258.233 217.651 259.179 215.609 260.526 213.878Z"/><path fill="#EF1B22" fill-opacity="0.0078431377" d="M158.631 288.234C157.549 286.024 156.345 283.907 154.91 281.904C149.75 274.699 145.408 275.582 137.68 274.313C108.316 269.491 88.2398 255.902 71.0124 232.097C68.2646 228.3 65.6788 224.334 63.2228 220.343C62.2308 218.731 61.4788 216.89 60.3486 215.376C59.8736 214.74 59.5442 214.457 58.7658 214.333C55.6629 215.433 55.4794 220.368 53.1728 222.116C52.8086 220.742 54.8416 215.398 55.1903 213.564C55.4198 212.357 55.4944 211.078 55.5021 209.849C55.5188 207.197 55.2123 204.307 54.6014 201.73C54.0904 199.574 51.5339 194.233 51.7419 192.637L52.0738 192.613C53.1444 193.568 53.935 196.132 54.5611 197.472C57.2376 203.198 60.6302 206.532 67.1142 207.558C68.9604 207.85 71.0382 207.871 72.7955 208.507C72.6741 209.366 64.4146 209.549 63.1142 211.402C62.8166 211.826 62.9204 212.459 63.0458 212.935C63.752 215.612 65.7621 218.293 67.1481 220.674C76.3496 236.486 89.7728 252.164 105.884 261.243C116.504 267.227 129.421 271.777 141.567 272.876C143.869 273.084 146.395 273.326 148.641 272.677C154.819 270.892 157.176 262.843 159.902 257.859C159.195 267.216 159.792 276.57 159.528 285.935L159.357 287.938L159.172 286.812L158.757 287.069C158.698 287.46 158.656 287.839 158.631 288.234Z"/><path fill="#EF1B22" fill-opacity="0.027450981" d="M159.528 285.935C159.759 287.69 159.908 289.449 160.054 291.213C159.559 290.273 158.904 289.257 158.631 288.234C158.656 287.839 158.698 287.46 158.757 287.069L159.172 286.812L159.357 287.938L159.528 285.935Z"/><path fill="#EF1B22" d="M149.989 49.63C145.386 46.1289 142.375 42.1908 141.605 36.2806C140.976 31.4521 142.623 26.4778 145.589 22.6775C148.513 18.9322 153.163 16.5755 157.852 16.0697C163.005 15.4766 168.182 16.9622 172.236 20.1975C175.914 23.1806 178.334 28.2751 178.762 32.9697C179.182 37.5705 177.544 42.2976 174.552 45.7848C173.29 47.2562 171.912 48.4443 170.327 49.5554C174.351 50.4341 186.564 53.2312 188.697 56.2741C190.038 58.188 189.474 65.564 189.218 67.9377C186.531 72.2156 175.815 77.3505 170.876 78.5458C170.598 78.6131 170.344 78.6468 170.06 78.6785C170.027 77.6814 170.118 76.296 169.777 75.3699C169.422 74.4039 168.462 73.3197 167.517 72.9281C166.893 72.6699 166.199 72.6691 165.593 72.9766C164.554 73.5035 164.092 74.446 163.804 75.5074L163.057 75.283C162.705 74.2591 162.328 73.8188 161.36 73.3425C160.65 72.9932 159.838 72.619 159.036 72.8627C158.175 73.1242 157.693 74.0006 157.355 74.7718C156.985 75.6192 156.681 76.5065 156.368 77.3769C156.263 75.9812 156.326 74.6826 155.136 73.7298C154.447 73.1782 153.334 72.6608 152.443 72.7862C151.835 72.8717 151.352 73.3176 151.03 73.8141C149.956 75.4717 150.375 76.885 149.733 78.1809C145.412 76.6648 141.247 75.0289 137.236 72.7947C134.989 71.5428 132.844 69.9519 130.562 68.8054C130.404 66.7417 129.93 57.4315 131.032 56.1967C133.317 53.6367 146.133 50.2793 149.989 49.63ZM162.558 42.3517C166.964 40.9094 169.405 36.2061 168.048 31.7734C166.691 27.3407 162.035 24.8097 157.577 26.081C154.616 26.9255 152.342 29.3038 151.631 32.3C150.92 35.2961 151.884 38.4426 154.15 40.5273C156.416 42.612 159.632 43.3097 162.558 42.3517ZM186.187 68.9117C186.489 68.3172 186.662 68.1198 186.603 67.4435C185.95 66.903 185.513 66.8528 184.668 66.7901C181.644 66.5656 178.528 66.6981 175.495 66.697L158.979 66.6984L143.647 66.7074C140.456 66.7086 137.212 66.5824 134.031 66.8538C133.645 67.4252 133.553 67.425 133.665 68.1386C134.398 68.8207 135.323 68.9235 136.284 69.0066C138.883 69.2315 141.583 69.0417 144.191 69.0183C147.945 69.0029 151.698 69.0113 155.452 69.0435C165.113 69.0535 174.924 69.4192 184.57 69.0478C185.111 69.0231 185.65 68.9777 186.187 68.9117ZM179.385 58.767C181.214 58.7943 185.483 59.202 186.849 57.6856C186.889 57.6407 186.917 57.5858 186.951 57.5359C186.44 56.917 185.49 56.8088 184.707 56.7321C180.554 56.3256 176.025 56.7844 171.825 56.8028C163.7 56.8489 155.574 56.8418 147.449 56.7815C143.165 56.7467 138.822 56.8387 134.549 56.5614C134.129 56.8454 133.78 56.9555 133.662 57.4909C133.373 58.7992 133.768 63.4445 134.169 64.7833L134.6 64.7809C136.743 62.5984 135.64 58.8295 140.465 58.7749C153.432 58.6283 166.416 58.7627 179.385 58.767ZM146.008 41.5216C146.673 41.111 146.841 41.0547 147.16 40.3554C147.053 37.8352 146.121 35.4132 146.174 32.8791C146.176 32.7819 146.174 32.6846 146.179 32.5874C146.308 30.1361 149.336 27.1996 148.515 24.7819C148.027 24.4341 147.931 24.4206 147.363 24.3724C144.683 27.0766 143.514 30.6215 143.541 34.3804C143.556 36.48 143.77 39.3668 145.255 41.0241C145.457 41.2496 145.73 41.4113 146.008 41.5216ZM170.899 41.1293C172.642 39.3753 173.511 37.1597 173.516 34.6778C173.52 32.7337 173.082 30.8345 171.619 29.4542C171.155 29.0167 170.815 28.8725 170.188 28.8C169.653 31.2082 171.366 33.4877 171.037 35.9894C170.81 37.7124 168.978 39.2828 169.036 40.9707C169.385 41.3287 169.41 41.3385 169.908 41.335C170.253 41.3325 170.572 41.2301 170.899 41.1293Z"/><path fill="#EF1B22" d="M228.502 68.433C231.821 63.9295 235.427 59.6329 238.829 55.19C241.607 51.563 245.932 44.9406 249.232 42.1693C251.586 41.8509 255.134 45.1054 256.895 46.4487C260.558 49.2439 264.445 52.373 267.742 55.5835C271.684 59.4215 275.319 63.6385 279.288 67.4462L279.059 67.6188C276.205 69.7935 273.63 72.4712 270.94 74.8559L252.648 91.079C249.648 93.7244 246.693 96.8361 243.24 98.8838C237.426 102.331 230.354 100.197 224.337 102.971C222.978 103.598 221.749 104.561 220.551 105.447C219.178 103.91 217.755 102.437 216.301 100.976C218.283 94.3482 216.73 83.3367 221.025 77.947C223.38 74.665 225.946 71.5586 228.502 68.433ZM222.089 78.486C221.974 78.701 221.869 78.9162 221.761 79.1345C221.049 80.5735 220.291 83.1677 220.69 84.765C220.795 85.1829 220.919 85.1755 221.285 85.3959C222.001 84.833 222.527 81.0922 223.52 79.662C227.328 74.1791 231.968 68.9873 236.164 63.7793C238.044 61.4469 240.092 59.1441 241.605 56.552L241.38 55.8946L241.72 56.3065L241.786 55.8208L241.548 55.7951C238.686 56.8829 232.05 66.1623 229.684 69.0349L222.089 78.486ZM223.809 86.8417C223.835 91.5627 222.851 95.6001 220.444 99.6853C219.988 100.286 219.509 100.698 219.441 101.462C220.12 101.432 220.607 100.98 221.143 100.601C225.316 97.8985 230.455 96.2412 235.4 96.0022C234.944 89.7368 238.238 83.3904 242.129 78.6269C243.322 77.3395 244.318 75.8583 245.351 74.4417C243.89 75.4787 242.472 76.7482 241.211 78.0192C236.952 81.3807 229.987 87.2551 224.218 86.8644C224.133 86.8586 224.047 86.8569 223.962 86.8521C223.911 86.8493 223.86 86.8452 223.809 86.8417Z"/><path fill="#EF1B22" d="M221.025 77.947C223.38 74.665 225.946 71.5586 228.502 68.433L229.684 69.0349L222.089 78.486L221.025 77.947Z"/><path fill="#EF1B22" fill-opacity="0.050980393" d="M241.211 78.0192C242.472 76.7482 243.89 75.4787 245.351 74.4417C244.318 75.8583 243.322 77.3395 242.129 78.6269L241.211 78.0192Z"/><path fill="#EF1B22" fill-opacity="0.023529412" d="M220.444 99.6853L221.143 100.601C220.607 100.98 220.12 101.432 219.441 101.462C219.509 100.698 219.988 100.286 220.444 99.6853Z"/><path fill="#EF1B22" d="M40.75 67.8271C40.7713 67.7921 40.7921 67.7567 40.814 67.722C40.8504 67.6642 40.8886 67.6075 40.9249 67.5496C44.4869 61.8681 62.9803 45.0288 68.8599 42.427C69.2696 42.2456 69.91 41.9779 70.3301 42.1511C71.4448 42.6107 95.3476 72.6824 97.7979 76.2292C99.1455 78.1797 100.283 80.408 101.092 82.6383C102.791 87.3187 101.863 97.3301 103.481 100.754C103.512 100.819 103.544 100.883 103.576 100.947C102.1 102.392 100.401 103.792 99.1572 105.441C92.5479 99.3298 83.3723 102.949 76.2453 98.4779C73.4548 96.7274 71.2136 94.1443 68.7584 91.9681C62.1157 86.0297 55.4098 80.1624 48.642 74.367C46.0653 72.1722 43.6223 69.6236 40.75 67.8271ZM101.243 102.152C97.7302 97.1337 96.1742 92.9179 96.2275 86.7417C90.2028 87.0728 83.9913 82.0535 79.4721 78.6617C77.9473 77.1675 76.3593 75.723 74.6453 74.4462C75.662 75.8474 76.7511 77.7282 78.0689 78.8501C81.2312 83.8389 85.5883 89.7724 84.4564 95.996C90.8193 96.3091 96.0245 98.6059 101.243 102.152ZM83.6027 98.0294C82.5755 96.5541 78.8899 96.24 77.2722 94.9815C73.5777 92.1073 56.4038 75.2465 53.7381 74.7097C53.5107 74.6639 53.3078 74.6598 53.0764 74.6603C53.3467 75.393 53.6483 75.9665 54.1755 76.5442C56.9846 79.6229 75.6626 96.2825 78.0242 97.397C79.5608 98.1221 81.8142 98.662 83.4722 98.0797C83.5162 98.0642 83.5592 98.0461 83.6027 98.0294Z"/><path fill="#EF1B22" fill-opacity="0.039215688" d="M74.6453 74.4462C76.3593 75.723 77.9473 77.1675 79.4721 78.6617C78.9239 78.9149 78.6627 78.9479 78.0689 78.8501C76.7511 77.7282 75.662 75.8474 74.6453 74.4462Z"/><path d="M163.804 75.5074C164.092 74.446 164.554 73.5035 165.593 72.9766C166.199 72.6691 166.893 72.6699 167.517 72.9281C168.462 73.3197 169.422 74.4039 169.777 75.3699C170.118 76.296 170.027 77.6814 170.06 78.6785C170.014 79.3691 169.923 79.6292 170.262 80.247C172.899 80.855 175.522 81.6766 178.168 82.2065C180.485 82.6707 182.912 82.7773 185.185 83.4512C187.012 83.9929 188.505 85.2976 190.221 86.0815C191.979 86.885 194.062 86.8652 195.849 87.6192C198.134 88.5837 199.748 90.4263 201.86 91.6183C203.543 92.5687 205.507 92.9989 207.173 93.9935C210.455 95.9531 212.475 99.8411 216.301 100.976C217.755 102.437 219.178 103.91 220.551 105.447C221.524 107.922 224.427 109.322 226.124 111.355C227.656 113.188 228.468 115.189 229.354 117.372C232.081 119.053 234.093 122.486 234.832 125.558C234.996 126.237 235.098 126.937 235.196 127.629C236.418 128.877 237.441 130.153 238.16 131.757C239.143 133.951 239.254 136.289 239.891 138.568C240.778 141.739 242.562 144.157 242.551 147.605C242.548 148.612 242.471 149.587 242.234 150.567L241.15 150.683C241.22 150.206 241.271 149.726 241.302 149.244C241.434 147.245 241.21 142.905 239.788 141.412C239.422 141.028 239.303 141.047 238.78 141.022C238.47 141.233 238.201 141.456 238.017 141.792C236.698 144.212 237.393 148.238 238.056 150.754C237.547 150.8 237.067 150.866 236.561 150.758C237.113 145.619 234.631 141.492 233.261 136.846C232.826 135.373 232.693 133.81 232.521 132.289C229.216 129.45 228.899 125.635 226.777 122.201C225.961 120.88 224.737 119.738 223.721 118.563C222.048 116.628 220.984 114.757 219.907 112.464C216.089 110.218 214.537 107.149 211.414 104.466C210.044 103.289 208.335 102.45 206.849 101.42C205.18 100.265 203.752 98.7597 202.062 97.6431C200.33 96.4994 198.253 95.8485 196.418 94.874C194.82 94.0257 193.366 92.8573 191.75 92.0626C189.964 91.1849 187.756 90.8985 185.859 90.249C183.961 89.5988 182.018 88.4542 180.079 88.0259C176.58 87.253 173.347 87.6754 170.036 85.8939C169.97 86.9886 169.595 88.5248 170.213 89.4617C169.592 89.4521 169.117 89.3229 168.528 89.1295C168.717 86.0581 169.538 77.8036 168.362 75.2596C168.017 74.5116 167.66 74.3557 166.934 74.1246C166.456 74.204 166.11 74.2876 165.708 74.5717C165.178 74.9457 164.983 75.7364 164.876 76.3646C164.544 78.3024 165.353 79.4177 166.405 80.9055C166.989 81.7312 167.702 82.5977 167.525 83.6366L167.058 83.8733C166.186 83.3635 165.653 82.2696 165.121 81.425L164.906 85.8245C164.877 85.9066 164.847 85.988 164.82 86.0708C164.567 86.8514 165.018 87.8556 164.363 88.3569L163.361 88.3214C163.022 87.8799 163.122 87.7365 163.194 87.1843C163.241 86.8292 163.328 86.5204 163.436 86.1804C164.152 84.7942 164.025 83.1394 163.756 81.6494L163.694 80.2224C163.803 79.1547 163.768 78.1122 163.728 77.0415L163.804 75.5074ZM201.629 95.9592C201.204 93.5168 200.354 91.8316 198.296 90.3495C196.153 88.8054 193.458 88.0632 190.941 87.372C191.017 88.9469 192.245 90.5229 193.376 91.5508C195.672 93.637 198.779 94.8274 201.629 95.9592ZM190.658 90.3182C190.818 89.4693 190.243 88.4535 189.78 87.7552C188.076 85.1854 183.653 84.27 180.854 83.7796C180.301 83.6828 179.748 83.5898 179.194 83.5005C179.144 84.4177 179.364 84.7932 179.968 85.4864C182.388 88.2677 187.09 89.7203 190.658 90.3182ZM179.276 86.7687C178.763 85.1366 177.693 83.867 176.181 83.0771C174.295 82.091 172.134 81.8223 170.091 81.3155C170.032 82.5693 169.991 83.805 170.042 85.0597C173.063 85.8586 176.149 86.5563 179.276 86.7687ZM211.495 102.684C211.015 99.5939 210.101 97.5902 207.482 95.69C205.93 94.5637 203.854 93.5537 202.027 92.9201C201.993 94.822 203.422 96.8308 204.682 98.153C206.154 99.6957 209.338 102.316 211.495 102.684ZM228.893 118.341C227.896 121.257 228.78 124.286 230.093 126.961C230.586 127.967 231.86 130.408 232.957 130.746C233.007 130.761 233.062 130.759 233.115 130.766C233.858 127.496 233.783 124.797 231.938 121.827C231.329 120.848 229.939 118.751 228.893 118.341ZM237.109 141.65C238.551 138.777 238.528 136.443 237.523 133.378C237.086 132.044 235.975 129.489 234.724 128.818C233.414 131.958 234.041 136.179 235.307 139.243C235.639 140.048 235.983 140.823 236.489 141.535C236.761 141.645 236.817 141.724 237.109 141.65ZM221.195 108.639C220.894 111.937 222.174 115.059 224.28 117.588C225.027 118.486 226.218 120.048 227.414 120.226C227.873 117.151 227.283 114.892 225.407 112.377C224.5 111.162 222.636 109.182 221.195 108.639ZM212.104 100.2C212.537 104.206 214.829 107.069 217.865 109.513C218.575 110.084 219.309 110.625 220.064 111.135C220.183 107.969 219.419 105.906 217.242 103.542C216.083 102.283 213.813 100.404 212.104 100.2Z"/><path d="M236.725 169.861C237.193 169.878 237.354 169.829 237.735 170.118C237.78 174.499 237.127 175.428 239.634 179.406C240.751 176.232 241.564 173.324 241.706 169.925L242.889 169.843C242.696 175.311 241.199 176.395 240.238 180.833C239.877 182.5 240.044 184.329 239.464 185.943C238.725 187.997 237.342 189.609 236.346 191.519C234.302 195.44 234.277 198.509 230.717 201.813C230.391 202.113 230.054 202.402 229.707 202.679C228.329 207.446 225.712 208.989 222.513 212.365C221.396 213.543 220.592 214.943 219.58 216.2C219.005 216.914 218.303 217.518 217.737 218.235C217.037 218.685 216.241 219.107 215.655 219.7C214.915 219.98 214.178 220.256 213.457 220.582C212.736 221.164 212.412 221.628 212.011 222.443C210.305 223.91 208.508 225.72 206.431 226.643C205.256 227.165 203.834 227.383 202.748 228.067C200.826 229.276 199.438 231.053 197.309 232.001C195.355 232.871 193.087 232.909 191.161 233.792C189.016 234.776 187.25 236.188 184.951 236.898C183.154 237.453 181.159 237.045 179.37 237.555C176.143 238.475 173.543 240.131 170.023 239.879C170.028 241.892 170.429 244.871 168.982 246.484C168.552 246.964 167.872 247.105 167.273 247.266C167.056 246.903 167.085 246.893 166.681 246.785L166.459 246.22L167.725 245.883C169.627 244.063 168.625 236.637 168.828 233.795C169.321 233.139 169.429 232.146 169.615 231.355L169.966 231.449C169.945 232.219 169.897 232.992 170.055 233.75C170.141 234.169 170.136 234.153 170.488 234.382C170.906 234.212 171.333 234.053 171.745 233.871C174.984 232.438 178.455 233.051 181.672 231.954C183.374 231.374 184.874 230.212 186.563 229.577C188.531 228.837 190.742 228.824 192.651 227.88C195.006 226.716 196.888 224.859 199.361 223.813C200.554 223.309 201.818 222.976 203.067 222.639C205.858 219.236 208.93 217.281 212.731 215.198C214.795 211.751 217.471 209.162 220.789 206.935C222.417 203.47 224.525 199.821 227.731 197.577C228.67 193.093 230.95 191.083 232.554 187.273C233.291 185.521 233.559 183.537 234.152 181.725C234.768 179.846 236.019 177.736 236.333 175.818C236.65 173.874 236.371 171.87 236.725 169.861ZM192.561 232.185C195.808 231.601 199.399 230.101 201.354 227.322C201.913 226.527 202.264 225.652 202.589 224.743C202.456 224.268 202.465 224.282 202.046 224.021C198.643 225.345 194.011 227.473 192.326 230.937C192.175 231.248 192.158 231.47 192.174 231.808L192.561 232.185ZM181.058 236.195C184.283 235.929 188.561 234.96 190.69 232.3C191.109 231.776 191.76 230.56 191.665 229.857C191.654 229.78 191.636 229.704 191.622 229.628L191.12 229.559C186.646 230.796 183.547 231.737 180.424 235.377L180.32 235.867C180.63 236.11 180.671 236.165 181.058 236.195ZM178.514 233.566C176.54 233.896 171.422 234.329 170.216 236.079C169.89 236.551 169.735 237.215 169.9 237.776C170.082 238.392 170.306 238.556 170.847 238.852L171.954 238.552C174.737 238.236 177.984 237.262 179.748 234.897C179.978 234.588 180.091 234.335 180.202 233.97L179.969 233.585C179.427 233.48 179.057 233.472 178.514 233.566ZM233.38 188.627C230.67 191.821 228.827 195.942 229.149 200.187C229.174 200.507 229.255 200.647 229.439 200.9C229.753 200.935 229.833 200.99 230.127 200.848C232.248 198.227 234.776 194.848 234.426 191.274C234.335 190.346 234.108 189.21 233.38 188.627ZM227.541 199.143C225.137 201.877 221.644 205.818 221.882 209.725C221.912 210.202 222.058 210.326 222.35 210.679L222.665 210.72C225.147 208.373 228.194 205.687 228.301 201.995C228.325 201.163 228.367 200.25 228.075 199.462L227.541 199.143ZM211.866 216.97C208.641 218.791 204.409 221.51 203.35 225.262C203.245 225.636 203.237 225.898 203.277 226.28L203.56 226.538C206.586 225.425 210.339 223.241 211.826 220.227C212.17 219.529 212.441 218.031 212.104 217.282C212.033 217.125 211.975 217.081 211.866 216.97ZM237.286 177.639C235.385 180.331 234.026 184.481 234.584 187.76C234.716 188.537 234.933 189.29 235.177 190.039L235.555 190.259L235.938 190.136C237.61 187.241 239.604 183.406 238.708 179.957C238.52 179.233 238.199 178.543 237.873 177.872L237.286 177.639ZM220.678 208.479C217.703 210.853 213.722 213.949 213.304 217.994C213.244 218.58 213.278 218.939 213.611 219.449C216.476 217.633 220.195 214.864 220.961 211.351C221.163 210.422 221.195 209.275 220.678 208.479Z"/><path d="M103.576 100.947C106.37 100.501 107.963 97.8063 109.848 96.0172C111.881 94.0884 114.5 93.5963 116.894 92.3204C118.775 91.3175 120.141 89.5333 122.074 88.5307C123.828 87.6211 125.937 87.5099 127.791 86.8611C129.816 86.1526 131.546 84.6513 133.574 83.8751C135.595 83.1019 137.655 83.2204 139.738 82.8054C143.538 82.0482 145.938 80.4314 150.145 80.5253C149.635 80.9947 149.629 81.0184 149.541 81.707C145.657 82.1426 142.674 82.4022 140.08 85.6547C139.697 86.1374 139.322 86.6267 138.955 87.1222C142.173 86.7132 147.443 86.3507 150.057 84.3147L150.082 85.6297C147.701 86.7385 145.431 87.4285 142.805 87.7387C141.422 87.902 139.943 87.9537 138.606 88.3546C134.139 89.6939 132.404 91.4878 126.991 92.2038C124.064 94.9301 120.876 96.6725 116.992 97.6871C114.314 100.588 111.399 103.399 107.566 104.682C105.122 108.155 102.708 111.032 99.0735 113.338C97.5795 116.659 95.4665 120.529 92.2988 122.527C91.4234 125.471 90.426 127.929 88.7955 130.541C88.1641 131.552 87.3392 132.554 86.8085 133.612C86.7167 133.238 86.5759 132.837 86.4 132.493C86.0211 131.753 85.8219 131.442 85.0276 131.192L84.913 130.43L84.5009 130.179C83.1665 130.757 82.2957 133.125 81.7993 134.386C81.3658 135.487 81.1056 136.613 80.9932 137.791C80.9258 138.968 81.1253 140.508 80.4017 141.426C78.8932 144.376 78.3584 147.181 78.0929 150.438C77.7182 150.617 77.4091 150.804 76.99 150.84C77.0549 145.853 78.5223 144.158 79.547 139.771C80.1002 137.402 80.1135 135.009 81.0797 132.728C81.7517 131.141 83.2027 129.932 83.8239 128.331C84.5986 126.334 84.9674 124.224 86.0347 122.341C87.0941 120.473 89.0039 119.19 90.091 117.361C91.0565 115.737 91.4941 113.875 92.6716 112.355C94.6179 109.841 97.9932 108.521 99.1572 105.441C100.401 103.792 102.1 102.392 103.576 100.947ZM89.9054 119.414C87.6585 121.794 85.3578 124.957 85.4305 128.393C85.4552 129.561 85.9422 130.981 86.5318 131.981C88.6214 128.835 91.5884 124.101 90.8171 120.192C90.7692 119.949 90.6645 119.773 90.5403 119.563L89.9054 119.414ZM118.477 96.1711C121.975 94.4927 126.371 92.3121 128.054 88.5713C127.462 88.1036 127.379 88.1715 126.612 88.2089C123.296 89.3411 119.593 90.5496 117.983 93.9792C117.657 94.6726 117.267 95.321 117.507 96.0587C117.842 96.125 118.134 96.1933 118.477 96.1711ZM92.1134 121.292C94.4729 119.704 97.3158 115.106 97.8169 112.386C97.9406 111.715 98.2056 110.364 97.875 109.738C97.8258 109.644 97.7457 109.571 97.681 109.488C94.9582 111.503 92.02 114.215 91.5444 117.76C91.3828 118.965 91.6244 120.188 92.1134 121.292ZM108.517 103.243C111.845 100.945 115.215 98.7079 116.693 94.7564L116.612 94.1575C116.277 94.0067 116.1 93.9256 115.731 93.9769C112.635 95.3349 109.304 97.2784 108.044 100.615C107.763 101.357 107.544 102.112 107.504 102.907C107.927 103.299 107.966 103.241 108.517 103.243ZM129.015 90.7039C132.118 89.8578 137.446 88.3937 139.174 85.4556C139.339 85.1766 139.44 84.8922 139.521 84.5811L139.339 84.1207L138.656 84.0599C135.111 84.6356 131.176 85.4676 128.964 88.614C128.564 89.1837 128.323 89.7475 128.12 90.4147L128.258 90.7379C128.517 90.7426 128.764 90.772 129.015 90.7039ZM99.6694 111.711C102.172 109.359 106.557 105.653 106.761 101.93C106.774 101.696 106.725 101.559 106.652 101.34L106.062 101.155C103.259 102.844 100.067 105.165 99.1975 108.496C98.9456 109.461 98.9636 110.407 99.046 111.392C99.3174 111.639 99.2812 111.694 99.6694 111.711Z"/><path d="M82.2642 163.545C83.0527 163.186 84.3274 162.907 85.1628 163.271C85.5141 163.424 85.476 163.552 85.6163 163.884L85.4646 164.238C84.5994 164.501 83.2538 164.094 82.5851 164.558L82.5323 164.818C80.5713 165.322 78.7911 167.806 76.8522 167.543L76.7453 167.176C77.2772 166.582 77.7926 165.989 78.2785 165.356L78.1272 165.075C76.8149 164.892 72.1903 164.592 71.2185 165.413C70.9163 165.669 70.6234 166.278 70.5941 166.67C70.5593 167.134 70.7235 167.479 71.0639 167.795C72.6177 169.237 82.5821 168.958 84.9825 168.66C85.5409 168.59 86.0702 168.471 86.5855 168.24C86.4597 168.871 86.4421 169.358 86.5355 169.994C85.3907 169.764 84.1793 169.862 83.0165 169.891C83.588 172.153 83.8249 174.429 83.5321 176.753C84.9551 179.51 86.2678 182.046 86.9479 185.097C87.215 186.295 87.2196 187.523 87.5811 188.707L87.0281 189.41C85.9731 191.829 85.8965 193.943 86.8667 196.421C87.466 197.952 88.955 200.915 90.531 201.627C90.7548 201.728 90.7916 201.715 91.0035 201.73L91.3315 201.543L92.1527 201.959C92.1348 204.977 93.8029 207.501 95.8762 209.617C96.5972 210.352 97.4479 211.197 98.4919 211.397C98.6848 211.261 98.8493 211.162 98.9954 210.975L99.378 211.151L99.6355 212.891L99.7348 210.643C100.127 213.792 101.13 215.791 103.707 217.773C104.761 218.583 105.869 219.278 107.012 219.953C107.615 220.328 108.176 220.312 108.859 220.337C109.946 223.476 113.334 225.42 116.152 226.785C116.813 227.105 117.478 227.417 118.146 227.722C117.695 226.432 117.187 225.19 116.623 223.944C117.112 224.093 117.602 224.258 118.1 224.368C118.228 226.374 119.448 228.055 120.902 229.34C122.681 230.91 125.98 232.796 128.402 232.711L128.749 232.485C128.625 232.05 128.495 231.615 128.385 231.176C128.575 230.73 128.761 230.281 128.942 229.831C128.907 230.897 129.775 232.305 130.492 233.074C133.04 235.808 137.639 236.44 141.164 237.016L139.693 234.702C140.04 234.447 140.104 234.241 140.289 233.864L140.374 233.69L140.935 233.642C140.748 234.3 140.762 234.469 141.119 235.067C142.305 237.054 145.093 238.05 147.237 238.486C148.146 238.671 149.155 238.913 150.079 238.942L150.026 240.098C146.148 239.64 142.148 238.303 138.126 237.641C133.233 236.835 133.75 236.027 129.95 234.475C127.884 233.63 125.591 233.377 123.516 232.498C121.5 231.644 120.4 230.143 118.624 229.044C114.16 226.282 111.81 227.046 108.202 222.045C107.725 221.512 106.928 221.302 106.275 221.041C105.528 220.481 104.717 220.019 103.917 219.54C103.293 219.03 102.629 218.563 101.983 218.082C100.768 216.686 99.9042 215.02 98.688 213.668C95.0684 209.643 92.5791 209.178 90.7774 203.447C87.0618 200.677 85.3525 197.219 84.6922 192.739C84.1122 192.224 83.6039 191.695 83.1416 191.07C82.407 190.095 81.8094 189.023 81.3653 187.886C80.5863 185.851 80.3955 183.626 79.7738 181.541C79.0948 179.263 77.884 177.18 77.4743 174.811C77.1874 173.152 77.2688 171.599 77.5092 169.942C75.3584 169.945 72.9422 170.172 70.9744 169.136C70.2342 168.746 69.5265 168.057 69.335 167.216C69.1439 166.377 69.4948 165.582 69.9929 164.924C70.5793 164.149 71.0438 164.158 71.945 164.052C73.1804 164.075 75.6109 164.396 76.5846 163.524C76.9797 163.461 77.2455 163.4 77.6442 163.489C78.4396 164.165 79.8844 164.083 80.8787 164.002C81.4312 163.957 81.8221 163.905 82.2642 163.545ZM85.1459 191.38C86.4655 188.282 85.8431 184.417 84.62 181.373C84.2623 180.483 83.904 179.581 83.324 178.81L82.6928 178.551C81.3657 181.572 81.0948 183.992 82.3167 187.152C82.8211 188.457 83.9194 190.657 85.1459 191.38ZM81.1694 179.677C82.6853 176.178 82.5369 173.715 82.0136 170.015L79.0204 169.792C78.3331 170.556 78.3865 171.807 78.4413 172.778C78.5693 175.044 79.2009 177.71 80.3702 179.657L80.8338 179.865L81.1694 179.677Z"/><path d="M234.066 164.972C233.973 164.695 233.96 164.458 233.95 164.167C234.608 163.974 235.987 164.029 236.494 163.72C236.542 163.69 236.581 163.647 236.625 163.61L237.266 163.702C238.764 164.088 240.306 164.122 241.84 163.955C242.296 163.952 242.789 163.983 243.24 163.935C244.955 164 246.664 164.061 248.381 164.032C249.029 164.262 249.701 164.435 250.02 165.104C250.203 165.488 250.325 165.92 250.45 166.326C249.882 166.526 249.833 166.651 249.478 167.114C249.434 166.547 249.327 166.181 249.051 165.683C247.622 164.567 245.575 164.977 243.868 165.056C242.938 165.822 241.042 167.682 239.794 167.579C239.396 167.546 239.403 167.416 239.162 167.132C239.443 166.322 240.244 166.298 240.588 165.506C239.45 164.537 235.614 164.993 234.066 164.972Z"/><path d="M150.059 242.037L150.722 241.02L150.955 241.162L151.186 242.826C151.203 243.756 151.064 244.976 151.815 245.655C152.301 246.093 153.097 246.286 153.709 246.493C153.192 246.819 152.89 246.872 152.707 247.47C152.074 247.156 151.291 246.828 150.814 246.295C149.763 245.122 150.017 243.493 150.059 242.037Z"/><path d="M151.471 235.88C152.422 237.054 153.664 238.397 154.208 239.819L154.146 240.397L154.263 240.094L153.839 240.441C152.606 240.215 152.253 238.994 151.254 238.427C151.444 237.652 151.417 236.686 151.471 235.88Z"/><path d="M165.647 236.813C166.507 237.635 167.116 238.357 167.668 239.414C167.659 239.941 167.627 239.973 167.312 240.401L166.83 240.375C166.256 239.724 165.84 238.89 165.005 238.658C165.014 238.251 164.962 238.436 165.167 238.074C165.398 237.667 165.517 237.26 165.647 236.813Z"/><path d="M243.24 163.935C243.297 163.712 243.418 163.564 243.543 163.374C244.802 163.066 246.211 163.26 247.496 163.327L248.381 164.032C246.664 164.061 244.955 164 243.24 163.935Z"/><path d="M80.9932 137.791C81.1301 139.683 81.4562 141.013 82.2908 142.727L81.4065 143.09C81.163 142.381 81.0405 141.882 80.4017 141.426C81.1253 140.508 80.9258 138.968 80.9932 137.791Z"/><path d="M237.266 163.702C238.227 163.141 239.762 163.066 240.836 163.351C241.259 163.463 241.533 163.653 241.84 163.955C240.306 164.122 238.764 164.088 237.266 163.702Z"/><path d="M77.6442 163.489C79.1929 163.206 80.7364 163.09 82.2642 163.545C81.8221 163.905 81.4312 163.957 80.8787 164.002C79.8844 164.083 78.4396 164.165 77.6442 163.489Z"/><path d="M247.291 157.025C246.2 157.096 245.083 157.256 244.023 156.921L243.931 156.642C244.992 156.166 246.337 156.388 247.476 156.455L247.291 157.025Z"/><path d="M163.436 86.1804C163.372 85.9774 163.317 85.788 163.283 85.5776C163.076 84.3184 162.988 82.7286 163.756 81.6494C164.025 83.1394 164.152 84.7942 163.436 86.1804Z"/><path d="M73.2658 163.275C74.4241 163.227 75.4449 163.314 76.5846 163.524C75.6109 164.396 73.1804 164.075 71.945 164.052C72.4327 163.928 72.9063 163.786 73.384 163.628L73.2658 163.275Z"/><path fill="#BA2416" fill-opacity="0.66274512" d="M163.051 244.772C163.129 243.711 163.152 242.608 163.311 241.558L163.554 241.426L163.456 240.988L163.517 240.99C163.812 242.398 163.723 243.702 163.827 245.114L163.051 244.772Z"/><path d="M72.2235 156.458C73.2424 156.378 74.2731 156.217 75.2644 156.532L75.3254 156.803C74.3878 157.267 73.2343 157.103 72.2158 157.08L72.2235 156.458Z"/><path d="M87.5811 188.707C88.053 189.022 88.5355 189.269 88.7915 189.797C88.5326 190.061 88.2265 190.323 88.0043 190.616C87.7439 190.181 87.3603 189.795 87.0281 189.41L87.5811 188.707Z"/><path fill="#991E15" fill-opacity="0.38431373" d="M163.152 77.6902C163.311 77.3457 163.436 77.2697 163.728 77.0415C163.768 78.1122 163.803 79.1547 163.694 80.2224L163.482 80.1674C163.043 79.6085 163.173 78.3935 163.152 77.6902Z"/><path fill="#BA2416" fill-opacity="0.74901962" d="M163.057 75.283L163.804 75.5074L163.728 77.0415C163.436 77.2697 163.311 77.3457 163.152 77.6902C162.933 77.0005 163.058 76.0129 163.057 75.283Z"/></svg>