<svg width="20" height="21" viewBox="0 0 20 21" fill="none" xmlns="http://www.w3.org/2000/svg">
<path d="M2.24992 18.4048C2.24992 18.957 2.69763 19.4048 3.24992 19.4048H6.01875C6.57104 19.4048 7.01875 18.957 7.01875 18.4048V12.8046C7.01875 12.2523 7.46647 11.8046 8.01875 11.8046H11.9811C12.5334 11.8046 12.9811 12.2523 12.9811 12.8046V18.4048C12.9811 18.957 13.4288 19.4048 13.9811 19.4048H16.7499C17.3022 19.4048 17.7499 18.957 17.7499 18.4048V8.27723C17.7499 7.9639 17.6031 7.66868 17.3531 7.47966L10.6031 2.37441C10.2463 2.1045 9.75355 2.10451 9.39669 2.37441L2.64669 7.47966C2.39678 7.66868 2.24992 7.9639 2.24992 8.27723V18.4048ZM1.95825 20.6964C1.40597 20.6964 0.958252 20.2487 0.958252 19.6964V7.63176C0.958252 7.31822 1.10531 7.02283 1.35548 6.83384L9.39715 0.758937C9.75383 0.489492 10.246 0.489492 10.6027 0.758938L18.6444 6.83384C18.8945 7.02283 19.0416 7.31822 19.0416 7.63176V19.6964C19.0416 20.2487 18.5939 20.6964 18.0416 20.6964H12.6894C12.1371 20.6964 11.6894 20.2487 11.6894 19.6964V14.0963C11.6894 13.544 11.2417 13.0963 10.6894 13.0963H9.31042C8.75813 13.0963 8.31042 13.544 8.31042 14.0963V19.6964C8.31042 20.2487 7.8627 20.6964 7.31042 20.6964H1.95825Z" fill="#1F1F1F"/>
</svg>
