<svg width="36" height="36" viewBox="0 0 36 36" fill="none" xmlns="http://www.w3.org/2000/svg">
<rect x="0.2" y="0.2" width="35.6" height="35.6" rx="17.8" fill="#858585" fill-opacity="0.2"/>
<rect x="0.2" y="0.2" width="35.6" height="35.6" rx="17.8" stroke="#E2E2E2" stroke-width="0.4"/>
<path d="M10 25V23H12V16C12 14.6167 12.4167 13.3877 13.25 12.313C14.0833 11.2383 15.1667 10.534 16.5 10.2V8H19.5V10.2C20.8333 10.5333 21.9167 11.2377 22.75 12.313C23.5833 13.3883 24 14.6173 24 16V23H26V25H10ZM18 28C17.45 28 16.9793 27.8043 16.588 27.413C16.1967 27.0217 16.0007 26.5507 16 26H20C20 26.55 19.8043 27.021 19.413 27.413C19.0217 27.805 18.5507 28.0007 18 28ZM14 23H22V16C22 14.9 21.6083 13.9583 20.825 13.175C20.0417 12.3917 19.1 12 18 12C16.9 12 15.9583 12.3917 15.175 13.175C14.3917 13.9583 14 14.9 14 16V23Z" fill="#595959"/>
</svg>
