<?xml version="1.0" encoding="utf-8" ?><svg xmlns="http://www.w3.org/2000/svg" xmlns:xlink="http://www.w3.org/1999/xlink" width="445" height="495" viewBox="0 0 445 495"><path fill="#62249F" d="M196.352 0L250.644 0C251.183 0.555485 251.429 0.816334 252.248 0.915638C255.271 1.28199 258.5 1.19943 261.556 1.41924C269.017 1.92371 276.469 2.56443 283.906 3.34108C322.825 7.55781 361.046 16.7273 397.642 30.6269C399.872 31.4917 411.702 35.626 412.826 37.1907C414.724 39.8346 417.082 51.0111 418.123 54.6849C431.004 100.177 440.164 151.215 439.444 198.556C438.116 285.983 407.919 356.162 345.081 417.018C318.986 442.291 288.311 463.029 256.191 479.837C249.548 483.313 242.699 486.489 235.855 489.544C233.452 490.617 225.34 493.722 223.729 495L222.87 495C221.043 493.533 209.087 488.861 206.126 487.506C127.312 451.468 56.9756 387.656 26.3451 305.244C-0.775084 232.277 3.96203 153.21 22.2959 78.7874C24.45 69.8728 26.7518 60.9946 29.2006 52.1565C30.563 47.0811 31.691 41.4821 33.8752 36.7142C65.668 23.2098 98.9227 13.4464 132.97 7.6206C149.455 4.77174 166.073 2.74759 182.76 1.5557C184.957 1.38631 194.308 1.22318 195.641 0.597002C195.861 0.49373 196.156 0.16481 196.352 0Z"/><path fill="#FEFEFE" d="M209.184 10.6133C273.38 8.59048 345.299 19.259 404.052 45.7111C409.717 66.2275 415.357 86.661 419.581 107.541C432.733 172.561 434.141 241.676 409.941 304.384C379.151 384.17 311.231 444.391 234.151 478.522C230.581 480.116 226.926 481.818 223.217 483.052C219.697 481.801 216.246 480.191 212.825 478.686C204.273 474.909 195.865 470.816 187.617 466.416C132.786 437.112 83.5218 393.966 53.0029 339.301C14.7582 270.797 11.3096 192.545 25.2732 116.811C29.7043 92.7776 35.9232 69.186 42.5923 45.694C51.26 41.7107 60.362 38.3644 69.3595 35.2055C114.41 19.804 161.582 11.5073 209.184 10.6133Z"/><path fill="#62249F" d="M208.782 20.3851C261.592 18.3691 314.357 25.4161 364.788 41.2201C375.205 44.5672 385.871 48.2367 395.842 52.7303C397.633 57.614 398.795 62.8879 400.146 67.9104C403.008 78.3733 405.602 88.9075 407.927 99.5025C422.258 165.878 425.797 234.826 401.337 299.458C394.74 317.066 386.249 333.904 376.013 349.677C342.033 402.031 289.689 442.91 233.061 468.391C229.8 469.916 226.493 471.343 223.147 472.67C218.901 470.466 214.255 468.743 209.896 466.725C202.31 463.163 194.838 459.365 187.489 455.336C140.023 429.209 97.3041 392.173 68.3391 346.101C25.6137 278.141 20.1486 197.25 34.5665 119.932C37.1358 106.047 40.1748 92.2536 43.6785 78.5748C45.9019 69.9822 48.6706 61.4065 50.6356 52.774C57.5956 49.7055 64.8478 47.088 72.0135 44.5436C116.038 29.3083 162.202 21.1541 208.782 20.3851Z"/><path fill="#FEE294" d="M223.147 37.0968C223.9 37.4088 224.368 38.3749 224.745 39.0593C227.634 44.3077 229.962 49.9111 232.676 55.2607C235.386 60.6045 238.484 65.6826 241.389 70.914C247.819 65.1168 253.48 62.292 257.136 53.5987C258.975 49.2244 258.856 45.6754 257.082 41.3068C262.193 44.5627 266.194 49.2941 268.557 54.8745C272.341 63.6605 271.587 74.7806 268.145 83.5399C278.857 78.6611 289.55 78.3762 296.685 66.9296C298.104 64.6543 298.073 59.6783 298.542 58.999L299.098 59.06C301.781 61.0631 304.441 70.1954 304.941 73.4091C306.469 83.2448 302.023 93.5872 296.314 101.373C298.79 100.742 301.384 100.718 303.925 100.616C310.837 100.338 317.385 99.8459 323.595 96.4233C328.277 93.8431 330.39 90.8108 331.83 85.7524C333.7 91.4768 334.614 96.6164 333.565 102.635C331.704 113.313 324.035 121.617 315.483 127.661C325.429 127.482 333.654 132.161 343.991 130.325C349.647 129.32 352.778 126.913 355.98 122.292C355.782 128.136 355.28 133.492 352.561 138.798C347.624 148.432 337.957 154.205 327.967 157.391C338.289 160.242 344.076 167.921 356 168.511C361.042 168.761 364.242 167.25 367.937 163.934C366.042 170.785 362.869 176.779 357.218 181.277C350.025 187.001 339.034 190.298 329.888 189.262C339.303 195.583 343.445 205.809 355.226 209.265C359.497 210.517 362.848 210.073 366.724 207.973C363.758 213.736 358.549 218.36 352.616 220.941C343.429 224.938 333.176 224.264 324.012 220.717C330.546 229.35 332.119 239.948 341.629 246.508C345.295 249.037 348.609 249.681 352.979 248.902C349.118 253.061 343.271 255.77 337.75 256.783C327.662 258.633 317.265 255.11 309.029 249.367C312.088 259.111 310.716 268.361 317.009 277.318C319.818 281.315 322.931 283.145 327.702 283.955C322.928 286.694 317.111 287.612 311.658 287.12C300.404 286.103 291.578 278.714 284.604 270.41C285.456 280.598 281.244 289.402 283.827 299.759C285.174 305.16 287.728 308.055 292.424 310.837C286.725 311.493 281.309 310.975 275.982 308.729C266.12 304.569 259.596 295.264 255.735 285.636C253.13 295.151 246.917 303.002 246.726 313.187C246.628 318.442 248.273 321.795 251.853 325.512C249.505 325.121 247.261 324.606 245.039 323.734C234.367 319.547 227.982 310.021 223.534 299.925C223.407 299.876 223.262 299.93 223.127 299.941C221.619 303.8 219.438 307.375 217.145 310.811C211.529 319.226 204.504 323.619 194.661 325.574C195.456 324.789 196.296 324.002 196.993 323.128C199.102 320.485 199.894 317.33 199.944 313.999C200.136 301.272 192.314 295.547 191.161 285.151C188.292 292.41 184.337 298.882 178.32 303.973C171.237 309.966 163.105 311.616 154.053 310.905C155.398 310.147 156.786 309.417 157.942 308.382C163.467 303.432 164.322 294.675 163.62 287.718C163.247 284.031 162.393 280.408 162.059 276.71C161.865 274.564 161.922 272.463 162.029 270.318C156.774 277.359 149.733 283.039 141.306 285.789C133.881 288.229 125.785 287.572 118.85 283.966C120.314 283.699 121.871 283.497 123.235 282.875C129.978 279.803 133.502 271.58 134.819 264.716C135.826 259.466 135.9 254.28 137.896 249.228C131.209 254.184 122.631 257.189 114.296 257.276C106.646 257.323 99.2872 254.352 93.8146 249.007C95.4541 249.158 96.9717 249.405 98.6217 249.167C105.48 248.177 111.073 241.707 114.298 236.015C117.304 230.709 118.837 225.912 122.636 220.819C114.679 223.865 106.205 224.625 97.9417 222.305C90.243 220.143 83.9175 215.058 80.0005 208.128C81.7164 208.86 83.2611 209.577 85.1246 209.843C91.8531 210.803 99.249 206.19 103.878 201.73C106.343 199.354 108.437 196.605 110.862 194.181C112.688 192.355 114.663 190.798 116.721 189.251C108.951 190.335 99.609 187.634 92.947 183.673C85.5152 179.254 81.0321 172.431 78.924 164.163C80.4261 165.437 81.8615 166.615 83.6818 167.405C89.8824 170.095 98.1156 167.684 103.818 164.791C106.664 163.347 109.324 161.549 112.16 160.081C114.255 158.996 116.425 158.128 118.621 157.273C111.471 155.585 104.488 151.315 99.3988 146.061C92.9556 139.411 90.6374 131.474 90.7913 122.391C91.629 123.592 92.4494 124.876 93.503 125.902C103.586 135.712 119.222 127.91 131.136 127.573C123.743 122.78 117.465 115.702 114.38 107.375C111.859 100.568 111.933 92.5075 114.986 85.8958C115.494 88.0488 116.1 89.9122 117.42 91.7131C121.458 97.2214 129.985 99.7578 136.471 100.329C140.902 100.718 145.424 100.457 149.826 101.147L150.187 101.206C145.516 94.5043 142.066 87.1142 141.547 78.8406C141.083 71.4511 143.655 63.675 148.547 58.1196C148.31 60.5557 148.311 62.6642 149.191 64.9881C150.174 67.5875 151.992 69.8615 153.992 71.7561C161.324 78.7008 169.857 79.6888 178.574 83.6087C175.463 76.5107 174.864 67.3517 176.564 59.8341C178.269 52.1975 182.944 45.5538 189.556 41.3708C188.517 43.6691 188.014 46.098 188.239 48.6197C189.141 58.7385 198.264 65.0209 205.354 70.9211C209.101 64.7795 212.561 58.4676 215.724 52.0059C218.16 47.0397 220.312 41.847 223.147 37.0968Z"/><path fill="#62249F" d="M166.636 115.543C168.63 115.992 171.432 116.467 172.659 118.306C173.099 118.952 173.229 119.76 173.014 120.511C172.124 123.702 164.107 126.752 161.137 128.507C161.938 129.24 163.004 129.978 163.052 131.158C163.137 133.239 160.114 137.916 159.136 140.095C153.294 153.107 156.863 168.179 165.691 178.943C168.843 182.786 172.558 185.954 176.418 189.049C176.956 194.829 179.946 199.584 183.564 203.967C184.783 205.444 186.175 206.892 187.196 208.515C185.302 207.836 183.508 207.128 181.716 206.203C181.08 209.7 180.461 213.169 180.179 216.717C183.451 216.531 196.018 215.78 198.21 217.084C198.027 217.631 197.885 217.632 197.373 217.876C195.683 218.679 182.919 221.325 180.421 221.715C180.836 223.647 181.286 225.548 181.828 227.448C186.23 225.773 198.785 222.728 203.388 222.899L203.721 223.133C203.439 223.711 203.197 223.906 202.615 224.216C200.706 225.233 198.298 225.792 196.266 226.626C192.109 228.329 188.061 230.297 183.906 232.003C185.914 235.082 187.93 237.969 190.666 240.464C193.27 238.898 195.987 237.529 198.795 236.368C205.716 233.481 218.611 229.785 223.359 224.259C229.933 231.587 246.944 234.695 255.932 240.473C258.661 237.916 260.687 235.157 262.764 232.068C259.652 230.679 244.028 224.358 243.032 223.217C243.622 222.759 245.943 223.077 246.768 223.175C252.827 223.896 259.142 225.65 264.985 227.387C265.43 225.5 265.851 223.62 266.189 221.71C263.021 221.099 250.645 218.745 248.631 217.468L248.523 217.073C250.748 215.746 263.151 216.532 266.533 216.773C266.165 213.238 265.628 209.77 265.043 206.267C263.188 207.163 261.308 207.857 259.368 208.539C264.362 201.847 269.136 197.697 270.348 188.881C280.569 180.992 288.341 171.433 290.086 158.21C290.772 153.015 290.403 147.468 288.58 142.515C287.616 139.896 283.482 133.283 283.588 131.152C283.641 130.083 284.83 129.17 285.549 128.486C282.738 126.836 274.334 123.581 273.563 120.52C273.369 119.749 273.536 119.047 273.985 118.4C274.867 117.132 277.174 116.007 278.692 115.788C279.009 115.742 279.311 115.764 279.629 115.784L279.894 116.027C279.816 116.54 279.708 117.069 279.654 117.582C279.574 118.339 279.917 119.1 280.433 119.644C281.335 120.594 282.61 121.277 283.765 121.867C288.23 124.151 290.956 125.525 293.831 129.786C292.776 130.358 291.55 130.931 291.126 132.15C290.892 132.82 291.084 133.503 291.414 134.103C291.84 134.877 292.591 135.603 293.469 135.819C294.121 135.979 294.817 135.75 295.363 135.391C298.637 133.24 300.944 125.611 302.1 121.918C302.72 131.56 302.536 137.705 297.136 146.065C298.587 158.012 297.049 167.145 291.044 177.686C297.352 177.673 302.84 179.945 308.546 182.371C298.2 183.636 287.072 186.155 280.266 194.788C279.455 195.817 278.762 196.932 278.07 198.043C285.31 196.254 291.321 198.017 297.598 201.823C300.562 203.621 303.49 205.699 306.116 207.962C296.734 205.626 286.189 205.285 277.631 210.48C276.005 211.467 274.505 212.678 273.043 213.893C279.459 214.447 283.722 216.852 287.867 221.774C290.68 225.115 292.967 228.937 295.302 232.615C288.129 228.868 280.137 227.28 272.085 227.434C275.012 233.633 275.987 239.465 273.64 246.063C266.123 267.198 238.368 275.799 223.346 290.681C218.642 286.219 213.2 282.392 207.811 278.81C203.579 275.998 199.128 273.473 194.96 270.576C184.743 263.474 172.01 252.344 171.706 238.963C171.614 234.902 172.845 231.011 174.592 227.384C166.464 227.485 158.674 228.79 151.39 232.589C155.987 225.356 160.875 216.231 169.959 214.243C171.158 213.98 172.373 213.824 173.592 213.688C165.883 207.412 158.2 205.409 148.242 206.448C145.696 206.714 143.253 207.262 140.795 207.959C146.595 202.463 155.357 197.078 163.535 197.272C165.247 197.312 166.88 197.627 168.541 198.02C163.837 190.164 156.418 186.059 147.659 183.892C144.504 183.111 141.27 182.758 138.043 182.428C143.728 180.028 149.379 177.517 155.685 177.752C149.409 166.614 148.232 158.443 149.559 145.956C145.079 139.771 143.973 133.49 144.303 125.999C144.924 126.006 145.211 125.752 145.684 125.403C146.771 128.283 148.699 134.215 151.582 135.636C152.181 135.931 152.879 135.917 153.495 135.678C154.355 135.343 155.099 134.617 155.422 133.748C155.669 133.103 155.637 132.385 155.334 131.764C154.824 130.709 153.804 130.319 152.806 129.845C154.37 127.604 155.835 125.835 158.136 124.323C160.591 122.71 166.114 121.393 166.838 118.287C167.036 117.435 166.78 116.39 166.636 115.543Z"/><path fill="#FEE294" d="M218.836 236.355C224.884 236.04 231.128 236.274 237.091 237.393C242.412 238.391 250.731 240.827 253.941 245.512C254.558 249.926 254.091 254.703 254.144 259.169L249.718 258.207C247.364 268.06 242.726 265.792 236.767 271.648C235.025 269.799 233.265 269.501 230.877 268.929C229.173 270.763 227.63 272.76 226.049 274.701L223.284 278.035C220.802 275.045 218.274 272.082 215.922 268.988C214.301 269.281 211.736 269.639 210.499 270.824C210.2 271.112 210.026 271.26 209.623 271.422C208.488 270.618 207.497 269.613 206.315 268.878C204.607 267.816 202.705 267.039 201.053 265.888C198.336 263.997 197.536 261.371 196.982 258.296C195.459 258.553 193.942 258.843 192.432 259.168C192.427 254.607 192.458 250.045 192.523 245.485C192.718 245.226 192.91 244.98 193.129 244.74C198.675 238.641 210.888 236.842 218.836 236.355Z"/><path fill="#62249F" d="M223.361 71.7196C227.554 80.7775 231.519 89.9241 238.686 97.0984C244.922 91.2139 254.178 90.5061 261.855 87.3303C260.535 89.5193 259.626 91.7655 260.202 94.3811C260.753 96.8865 262.572 98.7897 264.707 100.081C268.88 102.607 270.821 101.606 275.22 101.673C281.608 101.769 287.232 103.352 292.551 106.886C287.974 105.653 283.414 105.08 278.694 105.883C275.839 106.368 272.947 107.216 270.222 108.2C264.811 110.153 256.323 114.765 252.323 107.769C251.748 106.764 251.641 105.739 252.003 104.637C252.345 103.595 253.164 102.686 253.824 101.828C240.716 103.546 232.168 105.972 223.286 116.486C217.722 108.636 208.522 104.288 199.246 102.706C197.071 102.335 194.872 102.077 192.683 101.8C193.867 103.12 194.846 104.196 194.737 106.098C194.657 107.485 193.963 108.651 192.929 109.552C191.129 111.12 188.569 111.715 186.231 111.468C183.558 111.184 181.036 109.99 178.567 108.998C172.694 106.64 166.575 105.048 160.198 105.631C159.451 105.28 159.373 104.785 159.092 104.078C162.107 102.928 165.033 102.11 168.261 101.855C171.025 101.637 173.788 102.085 176.53 101.895C180.181 101.643 184.479 99.2442 186.014 95.8238C186.931 93.7785 186.837 91.381 185.971 89.3325C185.675 88.6311 185.258 87.9644 184.869 87.3116C192.278 90.3612 202.125 91.2273 207.975 96.989C214.345 92.3915 220.007 78.8565 223.361 71.7196Z"/><path fill="#62249F" d="M198.331 192.989C199.172 193.373 200.025 193.727 200.891 194.05C204.816 195.485 207.543 193.467 211.338 193.607C215.044 193.744 218.546 195.442 222.293 195.669C226.632 195.932 230.257 193.964 234.428 193.698C237.601 193.494 240.631 194.847 243.771 194.515C245.53 194.328 247.015 193.594 248.596 192.859C247.418 195.376 246.035 197.765 244.029 199.722C241.98 201.722 240.065 202.543 237.188 202.53C235.89 202.584 234.539 202.434 233.556 203.407C233.035 204.454 233.17 205.662 233.171 206.808C228.138 210.709 225.528 212.997 223.035 218.884C222.113 213.123 217.771 210.224 213.491 206.827C213.48 205.984 213.574 205.05 213.452 204.221C213.405 203.903 213.279 203.305 212.999 203.118C211.751 202.282 207.152 203.014 203.908 200.778C201.465 199.093 198.863 195.961 198.331 192.989Z"/><path fill="#62249F" d="M170.789 143.455C175.614 143.637 182.483 143.388 186.916 145.146C197.431 149.315 199.48 161.811 212.408 151.312C210.796 158.681 205.758 166.21 202.377 173.054L202.107 173.103C201.854 173.327 201.62 173.476 201.321 173.633C201.365 172.939 201.339 172.403 201.19 171.723L201.143 171.52C201.841 169.336 203.216 165.254 202.087 163.076C201.526 161.992 200.101 161.568 199.008 161.291C196.389 160.626 193.545 160.619 190.871 160.208C184.52 159.233 177.31 156.219 173.775 150.569C172.424 148.408 171.602 145.856 170.789 143.455Z"/><path fill="#62249F" d="M234.31 151.376C236.012 152.698 237.717 154.109 239.748 154.894C247.333 157.826 253.281 147.841 259.59 145.237C264.303 143.291 270.719 143.683 275.773 143.423C274.897 145.958 274.04 148.538 272.596 150.817C268.904 156.645 261.338 159.588 254.752 160.377C251.401 160.779 247.96 160.808 244.892 162.359L244.57 162.523C244.055 165.937 244.659 168.94 245.706 172.193C245.001 172.207 244.728 172.311 244.124 172.674C240.828 165.789 235.81 158.892 234.31 151.376Z"/><path fill="#7F3F94" d="M201.143 171.52L201.19 171.723C201.339 172.403 201.365 172.939 201.321 173.633C201.62 173.476 201.854 173.327 202.107 173.103L202.377 173.054C201.832 175.591 199.634 178.761 198.396 181.064C198.829 177.828 200.127 174.62 201.143 171.52Z"/><path fill="#7F3F94" d="M245.706 172.193C246.206 173.638 246.676 175.102 247.222 176.53L246.52 177.606C245.659 176.001 244.913 174.317 244.124 172.674C244.728 172.311 245.001 172.207 245.706 172.193Z"/><path fill="#7F3F94" d="M154.293 106.79C155.788 105.683 157.35 104.738 159.092 104.078C159.373 104.785 159.451 105.28 160.198 105.631C158.215 105.923 156.254 106.376 154.293 106.79Z"/><path fill="#7F3F94" d="M144.698 121.941L145.684 125.403C145.211 125.752 144.924 126.006 144.303 125.999C144.501 124.664 144.573 123.286 144.698 121.941Z"/><path fill="#7D4F75" d="M247.222 176.53C247.707 178.11 248.162 179.699 248.585 181.297C247.852 180.084 247.154 178.874 246.52 177.606L247.222 176.53Z"/><path fill="#FEFEFE" d="M326.015 341.056C335.517 340.37 343.784 347.497 344.504 356.997C345.225 366.496 338.127 374.789 328.631 375.544C319.085 376.303 310.74 369.161 310.016 359.613C309.291 350.064 316.464 341.745 326.015 341.056Z"/><path fill="#62249F" d="M326.602 347.162C332.675 346.798 337.922 351.362 338.403 357.427C338.884 363.492 334.422 368.826 328.367 369.424C324.346 369.821 320.423 368.014 318.111 364.7C315.799 361.386 315.457 357.081 317.218 353.444C318.979 349.806 322.568 347.404 326.602 347.162Z"/><path fill="#FEFEFE" d="M118.209 341.062C127.741 340.382 136.018 347.564 136.687 357.097C137.356 366.63 130.164 374.898 120.63 375.556C111.112 376.212 102.862 369.035 102.194 359.518C101.526 350.001 108.693 341.742 118.209 341.062Z"/><path fill="#62249F" d="M118.837 347.157C124.982 346.825 130.238 351.526 130.591 357.669C130.945 363.813 126.264 369.085 120.121 369.461C113.948 369.838 108.643 365.128 108.287 358.953C107.932 352.778 112.662 347.49 118.837 347.157Z"/><path fill="#FEFEFE" d="M276.392 341.583C283.922 341.512 292.632 340.367 298.674 345.828C301.982 348.818 303.732 353.019 303.935 357.441C304.165 362.457 302.441 366.544 299.128 370.221C291.926 376.388 285.355 375.041 276.466 375.006C276.102 363.898 276.48 352.705 276.392 341.583Z"/><path fill="#62249F" d="M282.543 347.476C286.62 347.467 291.069 347.043 294.404 349.871C296.641 351.767 297.718 354.504 297.898 357.374C298.113 360.826 297.15 363.709 294.845 366.293C291.11 369.44 287.135 369.105 282.555 369.222L282.543 347.476Z"/><path fill="#FEFEFE" d="M144.025 341.604C147.76 341.551 151.524 341.447 155.258 341.576C159.045 341.708 162.86 342.363 165.536 345.296C167.408 347.349 168.533 350.318 168.365 353.091C168.108 357.319 165.923 359.358 162.944 362.008C162.907 363.147 171.951 373.309 173.357 375.003L165.227 374.964C161.643 370.158 157.514 365.613 153.675 360.997C152.892 359.956 152.037 358.977 151.187 357.99L151.582 358.034C154.402 358.324 158.206 358.476 160.465 356.478C161.422 355.632 162.073 354.418 162.143 353.132C162.214 351.827 161.679 350.598 160.779 349.669C158.222 347.031 153.715 347.675 150.366 347.692C150.589 356.765 150.384 365.905 150.299 374.982L144.085 374.988L144.025 341.604Z"/><path fill="#FEFEFE" d="M241.465 340.659C243.558 341.797 246.273 344.938 248.101 346.654L262.769 360.38C262.483 354.166 262.731 347.835 262.733 341.608L268.971 341.583L268.97 363.664C268.97 367.225 269.245 370.971 268.932 374.504L268.554 374.777C261.712 367.883 254.454 361.344 247.477 354.577L247.522 375.21C245.693 371.227 243.055 367.037 241.797 362.871C240.86 359.767 241.449 344.942 241.465 340.659Z"/><path fill="#FEFEFE" d="M187.386 384.082C191.625 383.841 194.742 384.876 198.489 386.788L198.512 395.209C196.432 392.841 194.147 390.877 190.971 390.234C188.117 389.675 185.158 390.297 182.772 391.959C180.276 393.683 178.562 396.322 178.003 399.304C177.454 402.301 178.133 405.394 179.889 407.885C181.641 410.331 184.473 411.92 187.423 412.39C190.698 412.912 193.336 411.823 195.955 409.945C196.897 409.127 197.7 408.17 198.529 407.241C198.454 410.106 198.49 412.981 198.478 415.847C196.243 416.935 194.084 417.865 191.615 418.267C187.114 419.029 182.495 417.949 178.799 415.27C174.952 412.491 172.396 408.271 171.716 403.574C171.073 399.123 172.384 394.439 175.097 390.872C178.178 386.821 182.436 384.784 187.386 384.082Z"/><path fill="#FEFEFE" d="M223.314 340.68C224.677 341.895 238.034 371.09 239.805 374.814C237.626 374.808 235.447 374.829 233.268 374.879C232.063 371.812 230.269 368.881 229.309 365.736L220.904 365.76C221.628 364.189 222.039 362.013 223.268 360.766C224.257 359.763 225.313 359.961 226.613 360.009L225.229 357.229C224.539 356.098 224.014 354.754 223.434 353.556C220.419 360.792 216.765 367.862 213.452 374.972C211.327 374.808 209.247 374.791 207.119 374.829C211.897 363.424 218.141 352.016 223.314 340.68Z"/><path fill="#FEFEFE" d="M269.753 384.5C272.096 384.547 274.433 384.603 276.776 384.519L269.207 398.126C268.206 399.846 267.093 401.583 266.454 403.476C265.305 406.88 265.95 414.131 265.889 418.011L259.71 417.99C259.604 413.698 260.203 408.951 259.523 404.738C258.826 400.424 251.345 389.872 249.065 384.772L248.974 384.564C251.258 384.543 253.542 384.54 255.827 384.555C258.091 388.994 260.638 393.285 262.848 397.755C264.697 393.234 267.513 388.865 269.753 384.5Z"/><path fill="#FEFEFE" d="M218.285 384.522L242.603 384.582C243.475 386.647 244.409 388.691 245.314 390.742C241.562 390.672 237.799 390.738 234.046 390.747C234.381 395.969 234.11 401.379 234.109 406.621C234.12 410.413 234.099 414.205 234.045 417.996L227.806 418.003C227.67 408.918 227.784 399.81 227.781 390.723L218.323 390.733L218.285 384.522Z"/><path fill="#FEFEFE" d="M179.283 341.562L185.484 341.586C185.125 350.734 185.43 360.044 185.482 369.205C190.834 368.656 196.464 369.172 201.859 369.031C201.28 370.334 200.622 371.613 200.002 372.897C199.784 373.407 199.574 374.057 199.204 374.472C199.142 374.542 198.886 374.77 198.823 374.793C197.563 375.247 182.198 374.813 179.332 374.884C179.05 363.802 179.288 352.651 179.283 341.562Z"/><path fill="#FEFEFE" d="M205.876 384.566L212.135 384.568C212.288 395.661 212.357 406.878 212.067 417.965C210.052 418.093 207.974 417.99 205.952 417.991C205.936 406.866 206.211 395.682 205.876 384.566Z"/></svg>