<?xml version="1.0" encoding="utf-8" ?><svg xmlns="http://www.w3.org/2000/svg" xmlns:xlink="http://www.w3.org/1999/xlink" width="2048" height="2048" viewBox="0 0 2048 2048"><path fill="#FEFEFE" d="M1011.98 3.47534C1278.6 0.0142503 1535.92 101.359 1728.58 285.704C1925.15 472.858 2038.82 730.782 2044.3 1002.14C2050.44 1272.94 1948.35 1535 1760.65 1730.29C1607.38 1890.5 1406 1996.29 1187.11 2031.61C1136.73 2039.71 1086.3 2043.42 1035.33 2044.54C768.572 2047.75 511.22 1946.12 318.631 1761.52C122.336 1574.27 8.95062 1316.38 3.66803 1045.15C-2.28954 774.577 99.8083 512.78 287.375 317.676C479.701 116.654 734.913 9.418 1011.98 3.47534Z"/><path fill="#006437" d="M1019.17 32.3785C1566.69 29.7135 2012.76 471.309 2015.61 1018.83C2018.46 1566.35 1577.02 2012.57 1029.5 2015.61C481.714 2018.65 35.2325 1576.95 32.3789 1029.16C29.5253 481.375 471.381 35.0447 1019.17 32.3785Z"/><path fill="#FEFEFE" d="M993.827 58.3912C1527.05 41.7311 1972.85 460.44 1989.6 993.663C2006.35 1526.89 1587.72 1972.75 1054.5 1989.6C521.151 2006.45 75.1491 1587.69 58.3919 1054.34C41.6346 520.984 460.47 75.0553 993.827 58.3912Z"/><path fill="#006437" d="M986.997 86.4223C1504.8 65.9859 1941.13 469.176 1961.58 986.978C1982.02 1504.78 1578.84 1941.12 1061.04 1961.58C543.224 1982.03 106.871 1578.84 86.4242 1061.02C65.9775 543.205 469.18 106.859 986.997 86.4223Z"/><path fill="#FEFEFE" d="M1005.17 173.412C1288.52 163.011 1526.62 384.325 1536.94 667.675C1547.25 951.025 1325.86 1189.06 1042.51 1199.29C759.278 1209.5 521.37 988.234 511.062 705.01C500.755 421.785 721.95 183.808 1005.17 173.412Z"/><path fill="#006437" d="M1016.35 199.41C1285.1 195.215 1506.44 409.541 1510.9 678.288C1515.35 947.036 1301.25 1168.58 1032.5 1173.3C763.388 1178.03 541.467 963.56 537.003 694.44C532.54 425.321 747.227 203.61 1016.35 199.41Z"/><path fill="#FEFEFE" d="M1023.9 219.788C1128.22 317.082 1266.43 380.404 1403.93 413.871C1404.33 475.05 1398.82 536.124 1387.48 596.242C1345.15 817.131 1211.38 1029.38 1024.47 1156.15C1006.91 1150.52 929.76 1079.35 913.502 1063.09C735.862 885.511 645.022 664.513 644.894 413.8C770.023 387.629 931.675 308.978 1023.9 219.788Z"/><path fill="#006437" d="M1023.96 252.931C1124.21 345.556 1241.9 398.759 1373.28 431.593C1376.1 481.207 1371.23 533.052 1363.01 581.979C1326.31 799.795 1204.59 994.112 1024.62 1122.18C1018.08 1119.72 1011.41 1113.67 1005.75 1109.43C970.306 1082.76 937.168 1053.16 906.687 1020.94C758.947 864.896 668.952 647.335 674.894 431.589C803.975 400.516 924.809 341.931 1023.96 252.931Z"/><path fill="#FEFEFE" d="M1043.74 350.407C1070.76 347.493 1104.02 355.939 1128.5 366.949C1170.65 385.903 1201.35 422.837 1217.36 465.66C1238.33 521.756 1236.3 588.441 1211.15 642.888C1193.55 681.021 1164.35 712.329 1124.4 726.922C1098.36 736.433 1067.35 740.362 1041.54 728.061C1022.41 718.945 1008.22 702.038 1001.41 682.087C995.571 664.995 994.603 644.434 1003.12 628.035C1008.5 617.662 1017.45 609.893 1028.77 606.715C1038.57 603.963 1050.22 604.475 1059.19 609.618C1067.58 614.433 1072.84 622.577 1075.04 631.889C1077.31 641.56 1076.78 653.422 1071 661.854C1067.41 667.092 1061.66 670.968 1055.31 671.75C1041.97 673.391 1029.53 663.858 1019.48 656.362C1020.05 665.388 1021.76 674.643 1025.71 682.846C1031.41 694.664 1040.74 703.547 1053.3 707.682C1070.03 713.187 1088.95 709.573 1104.38 701.891C1126.85 690.519 1143.87 670.664 1151.67 646.716C1163.25 611.633 1153.27 576.527 1137.06 544.803C1142.63 537.893 1147.1 530.153 1150.28 521.863C1159.69 497.256 1156.8 469.116 1146.09 445.418C1135.2 421.318 1115.62 400.757 1090.55 391.499C1066.22 382.517 1041.16 385.337 1017.9 395.864C1006.83 402.201 997.571 409.442 989.502 419.394C978.705 432.71 969.497 451.334 966.862 468.333C963.097 492.622 964.748 518.308 964.74 542.886L964.724 662.617L964.751 809.687C964.76 839.922 963.325 871.042 966.495 901.118C970.675 940.787 983.586 971.103 1014.94 996.582C992.979 998.624 973.65 995.802 955.737 981.959C934.648 965.662 927.219 942.705 923.882 917.24C915.152 922.013 905.368 926.442 895.24 926.359C882.114 926.253 873.522 918.479 865.061 909.547C871.093 906.765 876.579 903.839 881.434 899.168C887.487 893.351 891.645 885.844 893.365 877.628C897.737 856.146 895.298 820.574 895.299 797.893L895.253 644.525L872.277 623.124L895.253 600.425L895.32 509.264C895.328 493 897.171 473.862 893.917 457.95C892.642 451.71 890.101 446.934 885.837 442.2C876.677 432.031 864.062 428.38 850.874 427.454C859.96 418.067 871.229 409.458 884.754 408.595C901.351 407.536 914.023 417.8 925.551 428.188C927.462 425.687 929.424 423.226 931.437 420.806C959.982 385.964 997.497 355.076 1043.74 350.407Z"/><path fill="#FEFEFE" d="M974.115 768.251L1297.64 768.251C1294.57 775.402 1291.3 782.473 1288.11 789.572L1284.99 796L974.047 796L974.115 768.251Z"/><path fill="#FEFEFE" d="M974.053 736.946C993.259 736.838 1016.68 734.861 1035.45 737.335C1049.99 739.251 1062.37 745.22 1077.55 745.188C1095.95 745.148 1112.75 737.894 1130.91 737.123C1151.18 736.262 1171.76 736.937 1192.06 736.933L1310.53 736.968L1305.59 749.249L1299.31 764.436L974.05 764.436L974.053 736.946Z"/><path fill="#FEFEFE" d="M974.047 799.968L1283.23 799.968L1272.93 820.243L1269.09 827.436L974.045 827.436L974.047 799.968Z"/><path fill="#FEFEFE" d="M974.13 831.333L1266.98 831.333C1263.88 837.111 1260.66 842.827 1257.49 848.566L1251.95 858.181L974.045 858.181L974.13 831.333Z"/><path fill="#FEFEFE" d="M974.064 862.125L1249.59 862.125L1238.37 880.481L1232.43 889.819L975.026 889.819C974.308 880.561 974.117 871.403 974.064 862.125Z"/><path fill="#FEFEFE" d="M975.142 893.716C1059.94 892.247 1145.04 893.672 1229.87 893.667L1218.4 910.659L1210.83 921.251L979.165 921.251C977.214 912.128 976.188 902.973 975.142 893.716Z"/><path fill="#FEFEFE" d="M979.866 925.142L1207.97 925.125C1204.18 930.478 1200.15 935.693 1196.24 940.961L1187.08 952.819L989.671 952.819C985.326 943.938 982.489 934.647 979.866 925.142Z"/><path fill="#FEFEFE" d="M685.024 484.875L885.945 484.875L885.945 512.333L687.149 512.333L685.024 484.875Z"/><path fill="#FEFEFE" d="M684.08 453.181L882.639 453.181C886.381 462.771 886.031 470.836 885.943 480.965L685.012 480.965C684.543 471.709 684.233 462.447 684.08 453.181Z"/><path fill="#FEFEFE" d="M891.469 988.181L948.128 988.181C954.795 993.574 961.977 998.054 969.917 1001.33C992.11 1010.49 1014.12 1008.38 1035.88 999.355C1029.86 995.941 1024.19 992.07 1018.47 988.181L1151.25 988.181C1152.99 988.17 1154.49 988.342 1156.21 988.591C1155.39 993.235 1136.3 1011.38 1132.1 1015.88L916.572 1015.88C908.128 1006.71 899.76 997.481 891.469 988.181Z"/><path fill="#FEFEFE" d="M687.494 516.181L885.945 516.181L885.945 543.958L690.276 543.965C689.241 534.715 688.313 525.453 687.494 516.181Z"/><path fill="#FEFEFE" d="M690.637 547.922L885.945 547.922L885.945 575.315L694.752 575.333L690.637 547.922Z"/><path fill="#FEFEFE" d="M695.493 579.181L885.945 579.181L885.945 596.618L881.616 601.013L875.51 607L700.555 607L695.493 579.181Z"/><path fill="#FEFEFE" d="M920.54 1019.85C944.133 1019.08 967.962 1019.76 991.577 1019.75L1128.51 1019.75L1114.14 1034.11L1100.87 1046.75L947.644 1046.75C938.476 1037.92 929.44 1028.95 920.54 1019.85Z"/><path fill="#FEFEFE" d="M708.481 641.922L879.073 641.922L885.943 648.493L885.943 669.979L716.077 670L708.481 641.922Z"/><path fill="#FEFEFE" d="M991.68 956.779L1184.1 956.749L1172.3 971L1161.13 984.251L1013.8 984.251C1004.76 976.049 997.941 967.214 991.68 956.779Z"/><path fill="#FEFEFE" d="M974.208 484.875L1146.92 484.875C1147.14 494.053 1146.37 502.731 1144.36 511.692C1136.69 514.181 1105.64 512.398 1095.17 512.394L974.066 512.333L974.208 484.875Z"/><path fill="#FEFEFE" d="M943.017 327.125L1102.99 327.125C1118.03 336.833 1133.33 346.117 1148.89 354.965C1127.18 355.265 1118.31 352.752 1097.86 346.908C1072.98 341.291 1043.27 338.328 1018.52 346.223C1010.51 348.779 1003.1 353.79 994.64 354.575C982.792 355.675 970.443 355.039 958.539 355.032L896.802 354.921C912.487 346.129 927.899 336.86 943.017 327.125Z"/><path fill="#FEFEFE" d="M980.888 453.181L1139.2 453.181C1141.66 459.957 1147.88 473.86 1144.93 480.656L1142.25 480.965L974.53 480.965C975.559 471.437 978.023 462.299 980.888 453.181Z"/><path fill="#FEFEFE" d="M717.185 673.922L885.943 673.922L885.943 701.42L725.866 701.436L717.185 673.922Z"/><path fill="#FEFEFE" d="M974.107 516.181L1143.17 516.181C1140.76 523.015 1137.59 529.101 1133.83 535.27C1131.58 538.271 1129.1 541.101 1126.68 543.965L974.066 543.965L974.107 516.181Z"/><path fill="#FEFEFE" d="M701.359 610.922L871.537 610.922L859.03 623.216L868.077 631.647C870.093 633.498 871.95 635.064 873.219 637.544C856.021 639.592 836.947 637.996 819.558 637.994L707.614 638L701.359 610.922Z"/><path fill="#FEFEFE" d="M974.062 547.948L1127.77 547.922C1132.48 556.826 1136.32 565.973 1140 575.333L974.062 575.333L974.062 547.948Z"/><path fill="#FEFEFE" d="M1178.43 705.255L1322.01 705.251L1312.09 733.032L1280.5 733.032L1134.75 732.993C1151.19 725.464 1164.61 716.909 1178.43 705.255Z"/><path fill="#FEFEFE" d="M727.143 705.251L885.943 705.251L885.943 733.011L737.205 733.032L727.143 705.251Z"/><path fill="#FEFEFE" d="M974.102 579.181L1141.18 579.181C1143.77 588.319 1145.41 597.503 1146.53 606.927L1134.5 607L1072.19 607C1065.96 601.97 1059.21 598.696 1051.31 597.211C1035.73 594.283 1021.84 598.428 1008.97 607L974.059 607L974.102 579.181Z"/><path fill="#FEFEFE" d="M742.494 421.998C775.998 421.252 809.625 421.855 843.142 421.875C839.56 426.453 836.26 431.206 832.946 435.978C850.865 435.631 865.501 437.629 879.852 449.251L830.5 449.251L739.419 449.328C723.602 449.368 707.464 450.043 691.681 449.335C689.197 449.223 686.565 449.524 684.773 447.745C684.3 444.433 684.268 442.186 685.051 438.922C693.255 434.566 730.088 425.987 742.494 421.998Z"/><path fill="#FEFEFE" d="M738.819 736.974L885.943 736.968L885.943 764.42L749.999 764.436C746.098 755.354 742.37 746.199 738.819 736.974Z"/><path fill="#FEFEFE" d="M1221.92 453.26C1269.19 452.086 1316.77 453.186 1364.07 453.181C1364.07 462.448 1363.79 471.714 1363.25 480.965L1231.54 480.965C1228.82 471.563 1225.32 462.433 1221.92 453.26Z"/><path fill="#FEFEFE" d="M999.185 421.878L1119.22 421.875C1126.6 430.573 1132.31 439.067 1137.45 449.251L1121.5 449.251L982.517 449.251C987.164 439.124 992.136 430.538 999.185 421.878Z"/><path fill="#FEFEFE" d="M1204.99 673.922L1331.82 673.922L1323.16 701.436L1309.5 701.436L1182.37 701.436C1190.83 692.919 1198.03 683.684 1204.99 673.922Z"/><path fill="#FEFEFE" d="M1205.14 421.875L1268.78 421.753C1280.52 421.737 1292.98 420.897 1304.59 422.636C1316.38 424.403 1328.31 429.227 1339.79 432.494C1347.48 434.684 1355.8 435.495 1363.14 438.614C1364.69 441.572 1364.14 445.926 1364.11 449.251L1220.04 449.251C1215.74 439.757 1210.48 430.803 1205.14 421.875Z"/><path fill="#FEFEFE" d="M751.931 768.314C796.524 767.391 841.329 768.258 885.943 768.251L885.943 796L764.304 796C759.998 786.865 755.471 777.78 751.931 768.314Z"/><path fill="#FEFEFE" d="M1232.42 484.875L1363.13 484.875C1362.77 493.804 1362.09 502.742 1361.56 511.664C1355.72 513.993 1252.95 512.351 1238.2 512.333C1236.53 503.091 1234.79 493.971 1232.42 484.875Z"/><path fill="#FEFEFE" d="M1221.96 641.922L1340.39 641.922C1337.97 650.028 1337.37 661.635 1332.59 668.678C1331.54 670.215 1329.96 669.803 1328.25 670L1207.46 670C1213.01 660.982 1217.7 651.606 1221.96 641.922Z"/><path fill="#FEFEFE" d="M1238.72 516.181L1361.19 516.181C1360.12 524.884 1359.38 533.649 1358.5 542.375L1358.01 543.083C1351.96 545.867 1255.08 543.984 1240.45 543.965C1240.24 534.681 1239.44 525.435 1238.72 516.181Z"/><path fill="#FEFEFE" d="M1240.52 547.922L1357.54 547.922C1356.59 556.952 1355.2 565.879 1353.77 574.841C1343.84 577.188 1329.82 575.449 1319.45 575.441L1238.84 575.333C1240.19 566.279 1240.22 557.06 1240.52 547.922Z"/><path fill="#FEFEFE" d="M1238.42 579.181L1353.39 579.181C1351.46 588.405 1349.91 597.732 1348.2 607L1233.36 607C1235.89 597.954 1237.33 588.5 1238.42 579.181Z"/><path fill="#FEFEFE" d="M952.072 1050.74C1000.07 1048.94 1048.75 1050.56 1096.82 1050.56L1083.18 1062.77C1077.38 1068.03 1071.28 1072.98 1065.3 1078.03L982.708 1078.03C972.348 1069.08 962.042 1060.12 952.072 1050.74Z"/><path fill="#FEFEFE" d="M766.213 799.968L885.943 799.968L885.943 827.42L780.189 827.436L766.213 799.968Z"/><path fill="#FEFEFE" d="M1232.52 610.922L1347.47 610.922C1346.08 617.419 1344.42 633.653 1339.94 638L1223.68 638C1227.01 629.03 1229.89 620.12 1232.52 610.922Z"/><path fill="#FEFEFE" d="M988.246 295.839L1058.87 295.819C1071.38 305.243 1084.09 314.388 1097 323.25L1060.5 323.251L949.162 323.242C962.438 314.466 975.471 305.328 988.246 295.839Z"/><path fill="#FEFEFE" d="M825.776 390.181L946.122 390.181C938.133 397.594 930.857 405.74 924.391 414.513C923.38 413.748 922.364 412.992 921.34 412.244C907.128 401.829 894.002 397.58 876.298 400.284C864.167 403.932 856.148 409.6 846.861 417.965L755.504 417.905C779.235 409.303 802.709 400.471 825.776 390.181Z"/><path fill="#FEFEFE" d="M889.442 358.925C922.279 357.951 955.416 358.879 988.286 358.875C975.432 368.122 962.446 376.123 950.167 386.251L937.5 386.251L835.018 386.15C853.433 377.633 871.583 368.554 889.442 358.925Z"/><path fill="#FEFEFE" d="M782.859 831.382C817.202 830.977 851.595 831.348 885.943 831.336L885.943 858.181L797.49 858.181C792.442 849.544 786.55 840.672 782.859 831.382Z"/><path fill="#FEFEFE" d="M799.741 862.125L885.932 862.125C885.013 869.913 883.346 876.482 880.308 883.657C879.188 885.516 878.203 887.221 876.583 888.709C873.637 891.415 825.055 889.85 817.123 889.819C811.171 880.703 805.516 871.356 799.741 862.125Z"/><path fill="#FEFEFE" d="M1050.49 395.338C1050.92 395.285 1051.35 395.22 1051.79 395.181C1076.97 392.889 1096.54 402.344 1115.53 417.965L1069.5 417.965L1002.49 417.965C1016.93 404.808 1031.13 397.989 1050.49 395.338Z"/><path fill="#FEFEFE" d="M1178.86 390.199C1191.69 390.057 1206.55 388.593 1219.12 390.896C1229.95 392.88 1241.96 399.449 1252.27 403.555C1264.69 408.497 1277.37 412.74 1289.81 417.617C1279.54 418.522 1268.89 418.01 1258.56 418.008L1202.36 417.965C1195.35 407.91 1187.4 398.979 1178.86 390.199Z"/><path fill="#FEFEFE" d="M1076.14 610.922L1146.76 610.922C1146.8 619.446 1145.73 627.81 1144.38 636.207C1144.34 636.268 1144.31 636.342 1144.25 636.391C1140.11 640.018 1094.72 638.028 1086.24 638C1085.17 627.53 1081.87 619.576 1076.14 610.922Z"/><path fill="#FEFEFE" d="M1074.26 673.922L1125.21 673.922C1112.27 687.913 1098.04 695.995 1079.63 700.519C1071.81 701.36 1063.9 701.561 1056.3 699.163C1044.09 695.307 1037.69 686.502 1032.29 675.564C1037.78 678.488 1043.87 681.125 1050.09 681.868C1059.85 683.035 1066.75 679.618 1074.26 673.922Z"/><path fill="#FEFEFE" d="M865.342 956.758L923.668 956.749C928.701 967.241 935.422 975.866 943.502 984.163C925.043 984.63 906.478 984.236 888.006 984.251C880.292 975.219 872.735 966.054 865.342 956.758Z"/><path fill="#FEFEFE" d="M1086.19 641.922L1142.89 641.922C1139.5 651.298 1135.34 659.572 1129.85 667.902C1129.67 668.104 1129.5 668.323 1129.3 668.507C1125.69 671.817 1085.24 670.043 1077.62 670C1083.09 660.914 1085.56 652.418 1086.19 641.922Z"/><path fill="#FEFEFE" d="M841.245 925.125L866.183 925.125C869.376 927.429 872.65 929.578 876.145 931.404C889.476 938.371 902.087 937.063 915.798 932.581C917.139 938.802 919.031 944.75 920.996 950.794L920.81 951.508C917.014 954.761 870.362 952.837 862.135 952.819C855.124 943.624 848.16 934.392 841.245 925.125Z"/><path fill="#FEFEFE" d="M974.119 705.251L1001.74 705.251C1009.16 716.818 1018.59 724.446 1029.2 732.863C1010.92 733.631 992.365 732.991 974.052 733L974.119 705.251Z"/><path fill="#FEFEFE" d="M987.691 1082.03L1060.78 1082L1045.68 1093.79C1038.69 1099.18 1031.45 1104.28 1024.3 1109.46C1011.46 1101.31 999.53 1091.54 987.691 1082.03Z"/><path fill="#FEFEFE" d="M819.64 893.691L873.149 893.68C865.667 899.035 857.159 900.208 849.824 904.872L850.691 907.558C854.23 912.311 858.163 916.756 862.018 921.251L838.402 921.251L819.64 893.691Z"/><path fill="#FEFEFE" d="M1023.93 265.817C1033.77 274.657 1043.63 283.341 1053.76 291.861L1025.5 291.923L993.176 291.923C1003.98 283.899 1014.25 275.178 1023.93 265.817Z"/><path fill="#FEFEFE" d="M1133.51 359.162C1139.94 358.916 1147.99 357.894 1154.27 359.322C1164 361.537 1199.05 380.331 1209.45 385.99C1198.07 386.916 1186.08 386.247 1174.63 386.251C1161.81 375.372 1148.5 366.763 1133.51 359.162Z"/><path fill="#FEFEFE" d="M974.059 610.948L1004.47 610.922C999.966 616.481 996.436 621.966 993.348 628.409C992.248 631.582 991.265 634.804 990.233 638L974.056 638L974.059 610.948Z"/><path fill="#FEFEFE" d="M974.055 673.946L989.441 673.922C991.661 683.755 994.982 692.387 999.416 701.432L974.055 701.436L974.055 673.946Z"/><path fill="#FEFEFE" d="M974.057 641.946L989.316 641.922C987.811 651.318 987.747 660.185 988.72 669.638C984.103 670.482 978.774 669.984 974.057 670.001L974.057 641.946Z"/><path fill="#FEFEFE" d="M634.513 414.72C636.708 427.657 634.858 453.352 635.423 468.099C636.933 500.987 640.35 533.76 645.658 566.252C684.65 806.504 817.832 1021.29 1015.7 1163.03C988.647 1162.53 961.684 1159.76 935.097 1154.73C865.383 1141.57 799.525 1112.89 742.404 1070.81C640.577 996.093 572.674 883.92 553.681 759.055C535.883 641.284 563.239 511.288 634.513 414.72Z"/><path fill="#FEFEFE" d="M1413.25 415.535C1419.59 420.501 1425.43 431.96 1429.67 438.999C1458.75 486.622 1479.27 538.969 1490.3 593.67C1515.21 717.583 1489.77 846.311 1419.62 951.445C1347.7 1059.03 1237.6 1129.87 1111.23 1155.11C1085.24 1159.81 1058.92 1162.46 1032.52 1163.05C1080.92 1128.37 1125.64 1090.92 1166.75 1047.76C1328.39 877.337 1416.88 650.394 1413.25 415.535Z"/><path fill="#FEFEFE" d="M1029.74 212.002C1051.99 212.191 1074.2 213.981 1096.2 217.358C1220.35 236.362 1331.9 303.805 1406.41 404.909C1266.66 373.205 1137.13 306.868 1029.74 212.002Z"/><path fill="#FEFEFE" d="M1001.54 212.428C1006.82 211.801 1012.61 212.081 1017.95 211.959C917.453 300.087 786.457 370.106 656.318 401.481L640.934 405.326C649.533 393.897 658.568 382.802 668.019 372.066C754.09 275.162 872.625 219.925 1001.54 212.428Z"/><path fill="#FEFEFE" d="M813.645 1215.61C831.116 1222.66 848.986 1228.44 867.002 1233.91C862.146 1263.03 860.009 1293.2 856.612 1322.56L835.327 1505.49C840.531 1495.71 844.509 1484.8 848.803 1474.58L871.79 1419.7L942.154 1250.09C960.7 1253.01 979.475 1254.37 998.186 1255.74C995.976 1312.28 991.515 1368.95 988.113 1425.45L969.617 1732.55C966.275 1788.05 962.439 1843.57 959.745 1899.1C919.585 1898.53 878.811 1890.36 839.622 1882.2C846.32 1851.1 850.484 1818.89 855.796 1787.49C868.797 1710.62 880.828 1633.44 895.054 1556.8L887.053 1569.74L756.57 1779.23C754.29 1689.7 754.358 1600.02 752.972 1510.47C712.203 1609.45 670.336 1707.99 627.38 1806.04C591.94 1788.59 558.016 1767.53 525.659 1744.93L813.645 1215.61Z"/><path fill="#FEFEFE" d="M1339.98 1167.26C1359.69 1165.48 1376.72 1174.89 1391.88 1186.51C1411.81 1201.78 1429.85 1220.32 1448.27 1237.39C1486.2 1272.54 1542.13 1314.73 1548.85 1369.69C1550.94 1386.78 1547.28 1401.72 1536.7 1415.36L1731.04 1542.99C1711.3 1570.92 1689.5 1597.32 1665.81 1621.99L1475.82 1468.65L1453.81 1483.68L1493.63 1541.81C1526.36 1592.21 1561.59 1641.46 1595.65 1690.99C1562.63 1719.33 1527.49 1745.07 1490.51 1768.01C1465.14 1714.1 1438.15 1660.8 1411.96 1607.27L1223.02 1220.8C1241.79 1213.86 1260.18 1205.91 1278.08 1196.97C1297.63 1187.21 1318.47 1171.06 1339.98 1167.26Z"/><path fill="#006437" d="M1335.77 1234.12C1338.6 1233.93 1341.45 1233.76 1344.27 1234.15C1350.23 1234.97 1356.01 1238 1360.59 1241.82C1371.6 1251.04 1380.52 1264.39 1389.45 1275.64L1431.36 1328.58C1441.13 1341.12 1454.11 1359.19 1451.61 1376.04C1448.97 1393.88 1432.96 1404.45 1419.4 1414.03C1417.24 1415.59 1415.48 1416.64 1412.97 1417.62C1406.37 1411.9 1386.75 1378.45 1380.53 1368.82L1303.45 1249.73C1314.04 1243.99 1324.15 1237.61 1335.77 1234.12Z"/><path fill="#FEFEFE" d="M1132.04 1246.42C1135.94 1248.72 1147.73 1299.07 1149.87 1307.05C1125.78 1312.76 1102.35 1316.2 1077.64 1317.68C1084.19 1369.49 1089.74 1421.48 1095.66 1473.38C1127.2 1470.14 1158.43 1464.32 1189.02 1455.98L1211.02 1538.1C1176.36 1548.86 1141.8 1556.07 1105.6 1559.28L1131.3 1779.86C1178.42 1774.67 1222.91 1763.82 1268.13 1749.77L1284.81 1813.17C1289.22 1828.25 1292.86 1843.64 1296.85 1858.83C1203.44 1889.42 1105.5 1903.82 1007.25 1901.41C1009.66 1839.59 1009.88 1777.51 1011.15 1715.64L1020.69 1256.22C1058.63 1255.97 1094.62 1252.36 1132.04 1246.42Z"/><path fill="#FEFEFE" d="M611.575 1078.15C617.248 1082.84 622.444 1088.8 627.753 1093.94C637.575 1103.59 647.768 1112.85 658.308 1121.71L544.532 1273.53L330.321 1559.16C308.646 1530.33 288.51 1500.37 269.997 1469.41C285.228 1451.93 301.573 1435.18 317.34 1418.17L361.857 1370.19C341.197 1339.15 322.555 1308.91 307.063 1274.95C271.416 1289.74 236.22 1306.04 200.879 1321.58C189.734 1292.74 180.79 1263.1 174.125 1232.9C223.417 1216.33 272.332 1198.2 321.364 1180.85L611.575 1078.15Z"/><path fill="#006437" d="M536.009 1177.98L536.969 1178.1C536.985 1180.51 424.085 1301.08 414.453 1311.4C408.901 1303.87 403.474 1296.24 398.174 1288.52C389.096 1274.81 380.854 1260.55 373.49 1245.85C427.28 1222.44 481.865 1200.58 536.009 1177.98Z"/><path fill="#FEFEFE" d="M1445.53 1070.68C1457 1072.13 1470.6 1078.66 1481.61 1082.48L1560 1109.6L1881.02 1220.17C1874.13 1250.12 1864.66 1278.44 1854.03 1307.26C1818.95 1293.06 1784.42 1276.96 1749.66 1261.95C1736.28 1292.38 1722.4 1321.13 1705.21 1349.6L1752.17 1396.5L1796.85 1441.08C1779.27 1472.62 1759.9 1503.12 1738.81 1532.42C1701.87 1484.75 1663.62 1437.98 1626.04 1390.8L1403.72 1111.77C1418.57 1099.19 1432 1084.65 1445.53 1070.68Z"/><path fill="#006437" d="M1529.79 1169.97C1546.7 1174.77 1563.96 1183.5 1580.27 1190.2L1682.92 1232.28C1676.28 1245.49 1669.58 1258.6 1662.32 1271.48C1657.87 1278.81 1653.18 1286 1648.59 1293.24C1608.74 1252.53 1568.47 1211.78 1529.79 1169.97Z"/><path fill="#FEFEFE" d="M713.867 1163.57C730.433 1173.92 747.291 1183.79 764.419 1193.18C729.392 1241.44 692.524 1288.59 656.618 1336.22L477.302 1573.87C501.81 1598.48 527.645 1619.71 555.385 1640.57L503.353 1729.17L484.862 1715.05C432.706 1674.66 382.611 1625.86 342.265 1573.61C384.691 1527.97 426.048 1481.24 467.892 1435.07L713.867 1163.57Z"/><path fill="#FEFEFE" d="M499.081 905.366C502.611 907.65 507.143 921.119 509.162 925.401C514.487 936.693 519.921 948.07 525.9 959.03C533.459 972.887 544.365 986.88 547.825 1002.48C551.127 1017.38 548.137 1032.64 540.004 1045.46C534.246 1054.54 526.303 1062.17 517.541 1068.33C502.381 1078.99 484.206 1086.55 467.672 1094.94C445.759 1106.04 422.638 1121.37 398.585 1126.81C371.422 1132.96 339.267 1129.79 315.432 1114.66C284.455 1095 279.809 1055.93 272.493 1022.87C232.219 1035.42 190.85 1045.75 150.147 1056.92C148.933 1026.17 147.623 998.295 149.503 967.453C188.821 959.6 228.59 953.334 268.083 946.321L499.081 905.366Z"/><path fill="#006437" d="M462.28 971.209C462.687 971.619 463.149 971.982 463.502 972.44C465.521 975.059 466.946 979.922 468.37 983.002C472.38 991.678 479.637 1001.32 476.285 1011.29C473.323 1020.09 461.043 1025.94 453.045 1029.52C434.708 1037.73 394.829 1053.76 375.927 1054.76C371.613 1054.99 368.19 1053.99 364.188 1052.49C350.625 1041.01 347.933 1019.61 345.079 1003.09L462.28 971.209Z"/><path fill="#FEFEFE" d="M1202.18 1228.12C1207.1 1233.38 1249.71 1333.42 1257.78 1351.59L1452.89 1790.75C1430.38 1803.56 1406.82 1814.9 1383.25 1825.6C1367.6 1832.79 1351.69 1839.39 1335.55 1845.39C1314.14 1780.67 1295.73 1714.53 1275.91 1649.28L1152.18 1242.17C1169.06 1238.28 1185.75 1233.6 1202.18 1228.12Z"/><path fill="#FEFEFE" d="M1578.73 915.424C1598.63 913.449 1626.77 921.365 1646.95 924.722C1640.45 942.209 1633.41 959.489 1625.83 976.536C1618.02 974.302 1609.65 971.554 1601.46 971.373C1595.6 971.243 1590.7 972.663 1586.51 976.865C1581.7 981.681 1578.28 989.191 1578.44 996.058C1578.54 1000.29 1580.03 1003.98 1583.14 1006.89C1588.26 1011.67 1594.77 1013.32 1601.06 1015.91C1611.87 1020.36 1620.31 1024.53 1632.48 1022.35C1645.42 1020.04 1656.57 1010.36 1666.76 1002.69C1701.14 976.789 1737.3 950.096 1782.22 949.556C1815.82 949.152 1859.17 958.025 1883.87 982.263C1903.16 1001.19 1908.82 1024.46 1908.91 1050.73C1909.03 1083.79 1905.38 1127.76 1880.65 1152.33C1863.97 1168.9 1842.69 1173.54 1819.9 1173.34C1791.56 1171.54 1767.89 1159.92 1742.35 1148.77C1752 1125.47 1760.14 1102.12 1766.79 1077.79C1778.41 1082.48 1791.87 1088.55 1804.69 1087.89C1810.92 1087.58 1816.88 1085.33 1820.96 1080.45C1827.89 1072.17 1828.28 1057.68 1827.01 1047.33C1826.28 1041.39 1823.62 1037.41 1818.87 1033.8C1812.41 1028.88 1803.58 1026.12 1795.76 1024.19C1736.27 1009.49 1706.02 1083.08 1640.64 1091.43C1630.57 1092.67 1620.37 1092.19 1610.46 1090.01C1587.19 1085.02 1549.14 1067.92 1530.32 1053.28C1517.53 1043.33 1506.28 1029.26 1504.44 1012.66C1501.78 988.759 1519.58 954.061 1534.36 936.14C1545.9 922.149 1561.31 917.099 1578.73 915.424Z"/><path fill="#FEFEFE" d="M1718.42 693.6C1725.11 700.047 1740.68 733.788 1746.17 744.242C1765.63 743.559 1785.3 741.607 1804.69 739.89L1764.04 782.473C1771.33 800.667 1778.73 818.82 1786.23 836.928C1769.69 829.201 1753.37 820.95 1736.98 812.915L1734.57 812.065C1727.74 813.264 1695.75 843.322 1688.52 849.547C1691.69 830.11 1694.16 810.525 1696.86 791.016C1680.17 780.755 1663.58 770.33 1647.1 759.743C1666.31 757.06 1685.59 753.144 1704.64 749.51L1718.42 693.6Z"/><path fill="#FEFEFE" d="M328.565 693.754C332.489 697.887 341.025 740.794 343.094 749.57L400.619 759.756C384.483 770.766 367.497 780.707 350.888 790.993C354.589 810.174 356.268 830.048 359.267 849.391C352.087 843.224 319.269 812.83 312.949 811.929C296.309 820.942 278.682 828.692 261.649 836.979L283.859 782.445C270.212 768.373 256.678 754.19 243.261 739.897C262.652 741.912 282.276 742.993 301.729 744.272L328.565 693.754Z"/><path fill="#FEFEFE" d="M1667.02 538.424C1675.2 543.496 1690.87 563.592 1697.98 571.554C1712.48 566.707 1726.93 561.726 1741.33 556.611L1718.76 596.842L1746.14 633.905L1711.58 626.809C1708.08 626.104 1704.58 625.433 1701.07 624.795L1674.55 662.663C1673.29 647.263 1671.18 631.887 1669.66 616.501L1625.82 602.769L1667.45 583.679L1667.02 538.424Z"/><path fill="#FEFEFE" d="M379.695 538.793C382.834 543.567 380.455 575.646 380.284 583.547L422.26 602.791C407.511 607.013 392.901 611.949 378.264 616.555L373.27 662.353C365.838 652.351 356.446 634.011 347.258 626.549C345.07 624.772 343.378 625.565 340.767 625.856L301.594 633.933L329.111 596.891L306.527 556.855C321.038 561.635 335.502 566.553 349.919 571.61L379.695 538.793Z"/><path fill="#FEFEFE" d="M1595.05 417.371C1603.28 420.3 1616.27 431.561 1623.89 437.058L1654.25 418.712L1643.83 452.807L1670.52 476.317L1636.86 476.895L1636.16 477.04C1632.2 479.635 1623.49 503.736 1621.08 509.518L1609.7 476.073C1597.88 474.64 1586 473.745 1574.14 472.74L1602.7 451.33L1595.05 417.371Z"/><path fill="#FEFEFE" d="M451.106 417.879L451.473 418.196C453.169 422.73 446.6 445.289 445.209 451.332C454.681 458.499 464.196 465.609 473.753 472.662C461.831 473.661 449.922 474.807 438.028 476.101L426.734 509.833C422.247 498.779 417.564 487.806 412.686 476.919L377.306 476.331L403.975 452.865L393.64 418.909C403.849 424.78 413.879 431.025 423.974 437.093L451.106 417.879Z"/><path fill="#FEFEFE" d="M489.812 315.596C497.46 320.7 504.324 327.905 511.167 334.071L537.048 322.226C533.982 331.123 529.681 339.866 525.978 348.533L545.439 369.963C537.066 368.912 528.645 368.289 520.237 367.587C519.59 367.409 518.091 367.545 517.397 367.549C511.327 374.039 507.096 384.269 502.745 392.044L496.354 364.138C487.007 362.248 477.675 360.286 468.358 358.254L493.135 343.608C491.829 334.295 490.721 324.956 489.812 315.596Z"/><path fill="#FEFEFE" d="M1556.93 315.956C1559.5 320.385 1555.46 337.957 1554.7 343.659L1579.48 358.26C1570.25 360.521 1560.82 362.206 1551.51 364.125L1545.16 392.196C1542.37 387.174 1534 369.3 1529.76 367.21L1502.33 369.974L1521.92 348.553L1510.56 322.039L1536.54 333.999C1543.55 328.294 1550.18 321.968 1556.93 315.956Z"/></svg>