<?xml version="1.0" encoding="utf-8" ?><svg xmlns="http://www.w3.org/2000/svg" xmlns:xlink="http://www.w3.org/1999/xlink" width="2054" height="2047" viewBox="0 0 2054 2047"><path d="M58.7714 58.75L1995.23 58.75L1995.23 811.494L1463.02 1460.37C1413.43 1518.48 1365.88 1578.71 1317.42 1637.8L1027.01 1991.83L58.7714 811.503L58.7714 58.75Z"/><path fill="white" d="M73.2822 73.25L1980.72 73.25L1980.72 806.062L1457.77 1443.53L1027.02 1968.81L73.2822 806.083L73.2822 73.25Z"/><path d="M159.893 168.727L1894.11 168.727L1894.11 675.473L159.893 675.473L159.893 168.727Z"/><path fill="white" d="M669.123 253.437L834.702 253.416C861.649 253.395 901.51 250.733 926.905 255.854C938.187 258.134 948.585 263.58 956.883 271.556C969.292 283.56 972.963 297.567 973.396 314.278C973.893 333.448 973.514 352.736 973.501 371.917C973.49 389.426 975.415 409.84 971.21 426.864C969.089 435.452 964.202 443.584 957.99 449.833C939.235 468.704 911.935 468.122 887.356 468.101L847.5 468L751.815 468L751.815 593.438L669.014 593.438L669.123 253.437Z"/><path d="M751.815 328.077C770.727 328.074 879.8 325.698 890.636 330.12C893.826 331.421 895.525 334.267 896.675 337.383C900.89 348.797 900.117 382.673 894.935 393.242C891.89 395.531 889.311 396.643 885.508 397.204C871.285 399.3 855.161 397.927 840.759 397.916L751.815 397.818L751.815 328.077Z"/><path fill="white" d="M314.556 253.453L572.912 253.44L572.912 317.077L420.978 317.277C405.064 317.333 374.978 315.611 360.925 317.628C356.35 318.285 350.753 319.447 347.936 323.496C342.294 331.603 343.294 352.021 345.604 361.449C347.035 367.292 350.592 373.758 356.321 376.315C366.152 380.702 384.407 378.242 395.045 378.133L473.201 378.004C491.658 378.012 510.738 377.058 529.022 379.746C538.398 381.125 548.181 383.554 556.211 388.778C564.651 394.268 569.814 402.751 571.788 412.539C575.218 429.547 572.947 472.525 572.913 492.292C572.88 511.544 574.605 532.325 572.495 551.42C571.679 558.811 569.555 566.162 565.294 572.33C557.434 583.707 545.314 587.628 532.376 589.891C502.141 592.282 470.871 590.586 440.489 590.587L266.936 590.563L266.936 517.667L415.421 517.61C434.445 517.533 454.812 519.413 473.619 517.733C476.705 517.457 481.767 516.985 483.945 514.5C490.871 506.598 490.181 471.438 488.576 460.776C488.078 457.471 486.782 451.757 483.651 449.832C477.716 446.183 459.399 448.239 452.383 448.314C424.647 448.524 396.909 448.576 369.172 448.472C350.169 448.453 330.261 449.661 311.461 446.657C301.281 445.031 290.264 442.043 282.033 435.59C274.056 429.338 269.861 420.528 268.572 410.611C266.324 393.307 268.134 368.401 268.154 350.424C268.174 332.243 266.435 304.885 268.757 287.61C269.677 280.762 272.061 274.067 276.515 268.706C285.988 257.305 300.648 254.692 314.556 253.453Z"/><path fill="white" d="M1541 253.442L1671.21 253.38C1694.02 253.379 1722.07 250.926 1744.15 255.492C1754.58 257.648 1765.39 262.396 1773.08 269.843C1778.43 275.017 1781.65 281.182 1783.58 288.322C1788.4 306.108 1785.81 347.364 1785.74 367.333L1709.95 367.333C1709.12 356.08 1711.66 334.96 1705.52 325.649C1703.22 322.165 1699.45 320.502 1695.49 319.651C1681.57 316.655 1655.29 318.673 1639.97 318.64C1617.19 318.592 1593 316.905 1570.36 318.947C1566.1 319.33 1557.09 320.194 1554.16 323.276C1551.31 326.277 1550.87 337.748 1550.62 341.955C1548.69 375.097 1550.16 409.167 1550.16 442.422C1550.16 461.527 1548.33 485.963 1550.69 504.307C1551.05 507.176 1551.5 512.065 1554.17 513.672C1557.44 515.632 1564.54 515.853 1568.46 516.081C1584.23 516.998 1687.08 517.577 1695.78 514.491C1697.37 513.199 1699.01 511.882 1700.39 510.374C1709.39 500.574 1705.95 477.537 1705.84 464.818L1787.06 464.818L1787.21 506.137C1787.27 529.563 1788.85 552.658 1772.32 571.532C1759.91 585.709 1740.01 593.937 1721.48 595.361C1706.29 596.528 1690.91 596.065 1675.68 596.08L1604.39 596.106C1583.66 596.103 1543.02 598.202 1524.72 594.815C1513.57 592.752 1502.43 587.645 1493.92 580.118C1482.94 570.406 1477.15 556.953 1476.17 542.463C1475 525.338 1475.9 507.717 1475.94 490.523L1475.94 397.258L1475.91 330.525C1475.91 318.795 1474.88 305.963 1476.66 294.401C1477.91 286.284 1482.12 277.246 1487.67 271.185C1501.23 256.376 1522.17 254.112 1541 253.442Z"/><path fill="white" d="M1075.24 253.437L1379.83 253.437L1379.83 317.077L1152.15 317.077L1152.15 392.967L1295.5 392.967L1321.26 392.967L1321.26 467.25L1150.86 467.25L1150.86 594.667L1075.15 594.667L1075.24 253.437Z"/><path fill="#FE0000" d="M163.709 766.75L875.849 766.75L875.836 1638.52C868.663 1633.71 843.181 1599.62 835.494 1590.2L724.975 1454.71L163.709 766.75Z"/><path d="M1174.34 766.75L1886.34 766.75C1843.52 821.514 1798.33 874.763 1754.37 928.644L1493.77 1248.08L1174.34 1639.65L1174.34 766.75Z"/></svg>